<?xml version="1.0" encoding="UTF-8"?>
<svg xmlns="http://www.w3.org/2000/svg" xmlns:xlink="http://www.w3.org/1999/xlink" viewBox="0 0 1500 500">
  <defs>
    <style>
      .cls-1 {
        fill: url(#Degradado_sin_nombre_3-33);
      }

      .cls-1, .cls-2, .cls-3, .cls-4, .cls-5, .cls-6 {
        mix-blend-mode: screen;
      }

      .cls-7 {
        fill: url(#Degradado_sin_nombre_3-17);
      }

      .cls-8 {
        fill: url(#Degradado_sin_nombre_3-2);
      }

      .cls-9 {
        fill: url(#Degradado_sin_nombre_3-12);
      }

      .cls-10 {
        fill: url(#Degradado_sin_nombre_3-22);
      }

      .cls-11 {
        isolation: isolate;
      }

      .cls-2 {
        opacity: .76;
      }

      .cls-12 {
        fill: url(#Degradado_sin_nombre_3-16);
      }

      .cls-3 {
        fill: url(#Degradado_sin_nombre_3-29);
      }

      .cls-13 {
        fill: url(#Degradado_sin_nombre_3-13);
      }

      .cls-14 {
        fill: url(#Degradado_sin_nombre_3);
      }

      .cls-15 {
        fill: url(#Degradado_sin_nombre_3-20);
      }

      .cls-16 {
        fill: url(#Degradado_sin_nombre_3-11);
      }

      .cls-17 {
        fill: url(#Degradado_sin_nombre_3-3);
      }

      .cls-18 {
        fill: url(#Degradado_sin_nombre_3-28);
      }

      .cls-19 {
        fill: url(#Degradado_sin_nombre_3-19);
      }

      .cls-20 {
        fill: url(#Degradado_sin_nombre_3-10);
      }

      .cls-21 {
        fill: url(#Degradado_sin_nombre_3-26);
      }

      .cls-22 {
        fill: url(#Degradado_sin_nombre_3-23);
      }

      .cls-23 {
        fill: url(#Degradado_sin_nombre_3-9);
      }

      .cls-24 {
        fill: url(#Degradado_sin_nombre_3-7);
      }

      .cls-25 {
        fill: url(#Degradado_sin_nombre_3-5);
      }

      .cls-26 {
        clip-path: url(#clippath);
      }

      .cls-27 {
        fill: url(#Degradado_sin_nombre_3-6);
      }

      .cls-28 {
        fill: url(#Degradado_sin_nombre_3-14);
      }

      .cls-29 {
        fill: url(#Degradado_sin_nombre_3-8);
      }

      .cls-30 {
        fill: none;
      }

      .cls-31 {
        fill: url(#Degradado_sin_nombre_3-25);
      }

      .cls-4 {
        fill: url(#Degradado_sin_nombre_3-31);
      }

      .cls-5 {
        fill: url(#Degradado_sin_nombre_3-30);
      }

      .cls-32 {
        fill: url(#Degradado_sin_nombre_3-24);
      }

      .cls-33 {
        fill: url(#Degradado_sin_nombre_3-27);
      }

      .cls-34 {
        fill: url(#Degradado_sin_nombre_3-21);
      }

      .cls-35 {
        fill: url(#Degradado_sin_nombre_3-15);
      }

      .cls-6 {
        fill: url(#Degradado_sin_nombre_3-32);
      }

      .cls-36 {
        fill: url(#Degradado_sin_nombre_3-4);
      }

      .cls-37 {
        fill: url(#Degradado_sin_nombre_3-18);
      }
    </style>
    <clipPath id="clippath">
      <rect class="cls-30" x="-1" y="-6" width="1502.44" height="506" transform="translate(1500.44 494) rotate(-180)"/>
    </clipPath>
    <linearGradient id="Degradado_sin_nombre_3" data-name="Degradado sin nombre 3" x1="1170.53" y1="664.89" x2="1547.36" y2="664.89" gradientTransform="translate(1497.44) rotate(-180) scale(1 -1)" gradientUnits="userSpaceOnUse">
      <stop offset="0" stop-color="#d99d4f"/>
      <stop offset="1" stop-color="#7d5729"/>
    </linearGradient>
    <linearGradient id="Degradado_sin_nombre_3-2" data-name="Degradado sin nombre 3" x1="1165.11" y1="664.68" x2="1554.25" y2="664.68" xlink:href="#Degradado_sin_nombre_3"/>
    <linearGradient id="Degradado_sin_nombre_3-3" data-name="Degradado sin nombre 3" x1="1159.29" y1="664.47" x2="1561.13" y2="664.47" xlink:href="#Degradado_sin_nombre_3"/>
    <linearGradient id="Degradado_sin_nombre_3-4" data-name="Degradado sin nombre 3" x1="1153.06" y1="664.25" x2="1568.01" y2="664.25" xlink:href="#Degradado_sin_nombre_3"/>
    <linearGradient id="Degradado_sin_nombre_3-5" data-name="Degradado sin nombre 3" x1="1146.43" y1="664.04" x2="1574.89" y2="664.04" xlink:href="#Degradado_sin_nombre_3"/>
    <linearGradient id="Degradado_sin_nombre_3-6" data-name="Degradado sin nombre 3" x1="1139.41" y1="663.83" x2="1581.78" y2="663.83" xlink:href="#Degradado_sin_nombre_3"/>
    <linearGradient id="Degradado_sin_nombre_3-7" data-name="Degradado sin nombre 3" x1="1132.01" y1="663.61" x2="1588.66" y2="663.61" xlink:href="#Degradado_sin_nombre_3"/>
    <linearGradient id="Degradado_sin_nombre_3-8" data-name="Degradado sin nombre 3" x1="1124.27" y1="663.4" x2="1595.54" y2="663.4" xlink:href="#Degradado_sin_nombre_3"/>
    <linearGradient id="Degradado_sin_nombre_3-9" data-name="Degradado sin nombre 3" x1="1116.24" y1="663.19" x2="1602.42" y2="663.19" xlink:href="#Degradado_sin_nombre_3"/>
    <linearGradient id="Degradado_sin_nombre_3-10" data-name="Degradado sin nombre 3" x1="1107.97" y1="662.98" x2="1609.3" y2="662.98" xlink:href="#Degradado_sin_nombre_3"/>
    <linearGradient id="Degradado_sin_nombre_3-11" data-name="Degradado sin nombre 3" x1="1099.57" y1="662.77" x2="1616.18" y2="662.77" xlink:href="#Degradado_sin_nombre_3"/>
    <linearGradient id="Degradado_sin_nombre_3-12" data-name="Degradado sin nombre 3" x1="1091.15" y1="662.57" x2="1623.06" y2="662.57" xlink:href="#Degradado_sin_nombre_3"/>
    <linearGradient id="Degradado_sin_nombre_3-13" data-name="Degradado sin nombre 3" x1="1082.72" y1="662.38" x2="1629.95" y2="662.38" xlink:href="#Degradado_sin_nombre_3"/>
    <linearGradient id="Degradado_sin_nombre_3-14" data-name="Degradado sin nombre 3" x1="1074.29" y1="662.19" x2="1636.83" y2="662.19" xlink:href="#Degradado_sin_nombre_3"/>
    <linearGradient id="Degradado_sin_nombre_3-15" data-name="Degradado sin nombre 3" x1="6.34" y1="749.31" x2="1148.34" y2="749.31" gradientTransform="translate(1515.72 -44.99) rotate(-176.79) scale(1 -1)" xlink:href="#Degradado_sin_nombre_3"/>
    <linearGradient id="Degradado_sin_nombre_3-16" data-name="Degradado sin nombre 3" x1="31.8" y1="747.61" x2="1125.33" y2="747.61" gradientTransform="translate(1515.72 -44.99) rotate(-176.79) scale(1 -1)" xlink:href="#Degradado_sin_nombre_3"/>
    <linearGradient id="Degradado_sin_nombre_3-17" data-name="Degradado sin nombre 3" x1="57.27" y1="745.96" x2="1103.1" y2="745.96" gradientTransform="translate(1515.72 -44.99) rotate(-176.79) scale(1 -1)" xlink:href="#Degradado_sin_nombre_3"/>
    <linearGradient id="Degradado_sin_nombre_3-18" data-name="Degradado sin nombre 3" x1="82.74" y1="744.31" x2="1082.94" y2="744.31" gradientTransform="translate(1515.72 -44.99) rotate(-176.79) scale(1 -1)" xlink:href="#Degradado_sin_nombre_3"/>
    <linearGradient id="Degradado_sin_nombre_3-19" data-name="Degradado sin nombre 3" x1="108.2" y1="742.67" x2="1064.78" y2="742.67" gradientTransform="translate(1515.72 -44.99) rotate(-176.79) scale(1 -1)" xlink:href="#Degradado_sin_nombre_3"/>
    <linearGradient id="Degradado_sin_nombre_3-20" data-name="Degradado sin nombre 3" x1="133.66" y1="741.03" x2="1048.53" y2="741.03" gradientTransform="translate(1515.72 -44.99) rotate(-176.79) scale(1 -1)" xlink:href="#Degradado_sin_nombre_3"/>
    <linearGradient id="Degradado_sin_nombre_3-21" data-name="Degradado sin nombre 3" x1="159.13" y1="739.38" x2="1034.1" y2="739.38" gradientTransform="translate(1515.72 -44.99) rotate(-176.79) scale(1 -1)" xlink:href="#Degradado_sin_nombre_3"/>
    <linearGradient id="Degradado_sin_nombre_3-22" data-name="Degradado sin nombre 3" x1="184.6" y1="737.74" x2="1021.42" y2="737.74" gradientTransform="translate(1515.72 -44.99) rotate(-176.79) scale(1 -1)" xlink:href="#Degradado_sin_nombre_3"/>
    <linearGradient id="Degradado_sin_nombre_3-23" data-name="Degradado sin nombre 3" x1="210.06" y1="736.1" x2="1010.4" y2="736.1" gradientTransform="translate(1515.72 -44.99) rotate(-176.79) scale(1 -1)" xlink:href="#Degradado_sin_nombre_3"/>
    <linearGradient id="Degradado_sin_nombre_3-24" data-name="Degradado sin nombre 3" x1="235.53" y1="734.45" x2="1000.96" y2="734.45" gradientTransform="translate(1515.72 -44.99) rotate(-176.79) scale(1 -1)" xlink:href="#Degradado_sin_nombre_3"/>
    <linearGradient id="Degradado_sin_nombre_3-25" data-name="Degradado sin nombre 3" x1="261" y1="732.82" x2="993.04" y2="732.82" gradientTransform="translate(1515.72 -44.99) rotate(-176.79) scale(1 -1)" xlink:href="#Degradado_sin_nombre_3"/>
    <linearGradient id="Degradado_sin_nombre_3-26" data-name="Degradado sin nombre 3" x1="286.47" y1="731.17" x2="986.55" y2="731.17" gradientTransform="translate(1515.72 -44.99) rotate(-176.79) scale(1 -1)" xlink:href="#Degradado_sin_nombre_3"/>
    <linearGradient id="Degradado_sin_nombre_3-27" data-name="Degradado sin nombre 3" x1="311.93" y1="729.53" x2="981.45" y2="729.53" gradientTransform="translate(1515.72 -44.99) rotate(-176.79) scale(1 -1)" xlink:href="#Degradado_sin_nombre_3"/>
    <linearGradient id="Degradado_sin_nombre_3-28" data-name="Degradado sin nombre 3" x1="337.41" y1="727.89" x2="977.65" y2="727.89" gradientTransform="translate(1515.72 -44.99) rotate(-176.79) scale(1 -1)" xlink:href="#Degradado_sin_nombre_3"/>
    <linearGradient id="Degradado_sin_nombre_3-29" data-name="Degradado sin nombre 3" x1="1399.14" y1="196.8" x2="1407.38" y2="201.46" xlink:href="#Degradado_sin_nombre_3"/>
    <linearGradient id="Degradado_sin_nombre_3-30" data-name="Degradado sin nombre 3" x1="1399.14" y1="225.85" x2="1407.38" y2="230.51" xlink:href="#Degradado_sin_nombre_3"/>
    <linearGradient id="Degradado_sin_nombre_3-31" data-name="Degradado sin nombre 3" x1="1399.14" y1="254.9" x2="1407.38" y2="259.56" xlink:href="#Degradado_sin_nombre_3"/>
    <linearGradient id="Degradado_sin_nombre_3-32" data-name="Degradado sin nombre 3" x1="1399.14" y1="283.95" x2="1407.38" y2="288.61" xlink:href="#Degradado_sin_nombre_3"/>
    <linearGradient id="Degradado_sin_nombre_3-33" data-name="Degradado sin nombre 3" x1="1399.14" y1="313" x2="1407.38" y2="317.66" xlink:href="#Degradado_sin_nombre_3"/>
  </defs>
  <g class="cls-11">
    <g id="Layer_1" data-name="Layer 1">
      <g class="cls-26">
        <g>
          <g class="cls-2">
            <path class="cls-14" d="M313.55,971.13c.3-.99,29.91-100.75,0-225.51-17.57-73.27-51.92-140.71-102.11-200.45-62.71-74.65-150.46-137.4-260.8-186.51l-.55,1.24c249.39,111,334.58,271.16,362.13,385.97,29.85,124.41,.34,223.87,.04,224.86l1.3,.4Z"/>
            <path class="cls-8" d="M321.98,964.14c.27-1,26.9-101.05-6.38-224.3-19.55-72.38-55.62-138.49-107.22-196.49C143.9,470.88,54.85,410.95-56.29,365.21l-.52,1.26c251.19,103.36,340.44,260.25,371.08,373.67,33.2,122.9,6.67,222.65,6.4,223.65l1.31,.36Z"/>
            <path class="cls-17" d="M330.41,957.16c.24-1,23.9-101.36-12.75-223.09-21.52-71.49-59.32-136.27-112.34-192.53-66.26-70.3-156.61-127.42-268.54-169.78l-.48,1.27c253.02,95.73,346.33,249.38,380.06,361.42,36.54,121.38,12.97,221.38,12.73,222.37l1.32,.32Z"/>
            <path class="cls-36" d="M338.85,950.18c.21-1,20.89-101.66-19.12-221.87-23.5-70.6-63.01-134.05-117.45-188.57-68.03-68.13-159.68-122.44-272.41-161.41l-.44,1.28c254.78,88.08,352.16,238.43,388.99,349.05,39.91,119.87,19.31,220.23,19.1,221.22l1.33,.28Z"/>
            <path class="cls-25" d="M347.28,943.19c.18-1.01,17.88-101.97-25.49-220.66-25.47-69.71-66.71-131.82-122.56-184.61-69.8-65.96-162.75-117.45-276.28-153.04l-.41,1.3c256.57,80.43,358.02,227.52,397.95,336.75,43.27,118.36,25.63,219.01,25.45,220.01l1.34,.24Z"/>
            <path class="cls-27" d="M355.71,936.21c.15-1.01,14.87-102.27-31.86-219.45-27.45-68.82-70.4-129.6-127.68-180.64-71.57-63.78-165.83-112.46-280.14-144.67l-.37,1.31c258.37,72.79,363.88,216.61,406.9,324.44,46.62,116.85,31.96,217.8,31.8,218.8l1.34,.2Z"/>
            <path class="cls-24" d="M364.14,929.22c.12-1.01,11.87-102.57-38.23-218.24-29.42-67.93-74.1-127.38-132.79-176.68-73.34-61.61-168.9-107.47-284.01-136.3l-.33,1.32c260.16,65.15,369.74,205.7,415.86,312.14,49.97,115.34,38.28,216.59,38.15,217.6l1.35,.17Z"/>
            <path class="cls-29" d="M372.57,922.24c.09-1.02,8.86-102.88-44.6-217.03-31.4-67.04-77.8-125.15-137.91-172.72-75.12-59.44-171.97-102.48-287.88-127.93l-.29,1.33c261.99,57.52,375.64,194.83,424.85,299.9,53.31,113.82,44.57,215.31,44.48,216.32l1.35,.13Z"/>
            <path class="cls-23" d="M381,915.26c.07-1.02,5.86-103.18-50.97-215.81-33.37-66.15-81.49-122.93-143.02-168.76-76.89-57.27-175.04-97.49-291.74-119.56l-.25,1.33c263.75,49.87,381.47,183.89,433.77,287.53,56.68,112.31,50.92,214.16,50.86,215.17l1.36,.09Z"/>
            <path class="cls-20" d="M389.43,908.27c.03-1.02,2.85-103.48-57.34-214.6-35.35-65.26-85.19-120.71-148.13-164.8C105.3,473.78,5.84,436.37-111.65,417.68l-.21,1.34c265.58,42.23,387.37,173.01,442.76,275.29,60.01,110.8,57.21,212.89,57.18,213.91l1.36,.05Z"/>
            <path class="cls-16" d="M397.86,901.29c0-1.03-.16-103.79-63.71-213.39-37.32-64.37-88.88-118.48-153.25-160.83C100.48,474.14-.28,439.55-118.57,424.25l-.18,1.35c267.34,34.59,393.19,162.07,451.69,262.93,63.39,109.29,63.56,211.74,63.56,212.76h1.36Z"/>
            <path class="cls-9" d="M404.93,894.33l1.36-.03c-.02-1.03-3.17-104.09-70.08-212.17-39.3-63.48-92.58-116.26-158.36-156.87C95.65,474.51-6.41,442.73-125.49,430.81l-.14,1.35c269.14,26.94,399.06,151.16,460.65,250.62,66.74,107.78,69.89,210.52,69.91,211.55Z"/>
            <path class="cls-13" d="M413.36,887.39l1.36-.07c-.05-1.03-6.17-104.39-76.45-210.96-41.27-62.59-96.27-114.04-163.47-152.91-83.97-48.57-187.33-77.54-307.21-86.08l-.1,1.36c270.94,19.3,404.92,140.26,469.61,238.32,70.1,106.27,76.21,209.31,76.26,210.34Z"/>
            <path class="cls-28" d="M421.79,880.44l1.35-.11c-.08-1.03-9.18-104.69-82.82-209.75-43.25-61.7-99.97-111.81-168.59-148.95-85.74-46.4-190.4-72.55-311.07-77.71l-.06,1.36c272.73,11.66,410.78,129.35,478.57,226.02,73.45,104.76,82.53,208.1,82.62,209.13Z"/>
          </g>
          <g class="cls-2">
            <path class="cls-35" d="M1509.18-47.41c-2.75,.09-278.33,11.56-565.46,193.76-168.64,107.01-308.23,251.1-414.91,428.27-133.3,221.39-215.27,495.34-243.62,814.23l3.59,.32C352.85,668.43,681.27,317.21,945.49,149.49,1231.82-32.25,1506.56-43.71,1509.3-43.81l-.13-3.6Z"/>
            <path class="cls-12" d="M1484.42-62.56c-2.73,.17-276.51,19.37-556.96,208.7-164.71,111.2-299.49,258.46-400.59,437.69-126.33,223.97-200.12,498.76-219.31,816.74l3.59,.22C354.54,682.11,671.27,323.51,929.33,149.23,1208.98-39.63,1481.93-58.79,1484.65-58.96l-.23-3.59Z"/>
            <path class="cls-7" d="M1459.67-77.7c-2.72,.25-274.69,27.16-548.45,223.63-160.78,115.39-290.74,265.82-386.26,447.1-119.36,226.55-184.97,502.18-195,819.25l3.6,.11C356.23,695.69,661.35,329.68,913.32,148.85,1186.29-47.05,1457.29-73.87,1460-74.12l-.33-3.58Z"/>
            <path class="cls-37" d="M1434.91-92.85c-2.7,.33-272.87,34.97-539.94,238.56-156.85,119.58-281.99,273.18-371.93,456.53-112.39,229.12-169.82,505.6-170.69,821.76h3.6c1.96-714.53,295.32-1087.91,541.06-1275.31C1163.31-54.38,1432.65-88.95,1435.34-89.27l-.43-3.58Z"/>
            <path class="cls-19" d="M1410.15-107.99c-2.68,.41-271.05,42.77-531.43,253.5-152.93,123.77-273.24,280.54-357.61,465.95-105.42,231.7-154.68,509.02-146.38,824.27l3.6-.1c-18.74-712.48,262.93-1093.24,502.51-1287.21C1140.47-61.77,1408.01-104.03,1410.69-104.43l-.54-3.56Z"/>
            <path class="cls-15" d="M1385.39-123.13c-2.66,.48-269.23,50.57-522.92,268.43-149,127.95-264.49,287.89-343.28,475.37-98.45,234.27-139.53,512.44-122.07,826.77l3.6-.2c-39.45-710.41,230.53-1098.57,463.96-1299.09C1117.64-69.15,1383.38-119.11,1386.03-119.59l-.64-3.54Z"/>
            <path class="cls-34" d="M1360.64-138.28c-2.65,.56-267.4,58.37-514.41,283.36-145.07,132.15-255.74,295.25-328.95,484.79-91.48,236.85-124.37,515.86-97.76,829.28l3.59-.31c-60.15-708.34,198.14-1103.89,425.41-1310.98,246.28-224.4,510.22-282.07,512.86-282.62l-.74-3.52Z"/>
            <path class="cls-10" d="M1335.88-153.42c-2.63,.64-265.58,66.17-505.89,298.3-141.14,136.33-246.99,302.61-314.62,494.21-84.51,239.43-109.22,519.28-73.45,831.78l3.58-.41C364.63,764.08,611.31,361.12,832.49,147.47c239.61-231.46,501.62-296.75,504.23-297.38l-.84-3.5Z"/>
            <path class="cls-22" d="M1311.12-168.56c-2.61,.71-263.76,73.97-497.38,313.23-137.21,140.52-238.24,309.97-300.3,503.63-77.54,242-94.08,522.7-49.14,834.29l3.56-.51C366.32,777.85,601.24,367.53,816.2,147.32c232.93-238.63,493.27-311.69,495.87-312.4l-.95-3.48Z"/>
            <path class="cls-32" d="M1286.37-183.7c-2.59,.79-261.94,81.77-488.86,328.16-133.28,144.71-229.49,317.33-285.97,513.04-70.57,244.58-78.92,526.11-24.83,836.8l3.55-.62c-122.28-702.25,101.03-1120,309.89-1346.78,226.27-245.68,484.68-326.37,487.26-327.16l-1.05-3.45Z"/>
            <path class="cls-31" d="M1261.61-198.83c-2.58,.87-260.11,89.57-480.35,343.09-129.35,148.9-220.74,324.68-271.63,522.46-63.6,247.15-63.78,529.53-.52,839.3l3.53-.72C369.67,805.2,581.22,380.1,783.86,146.76c219.59-252.85,476.33-341.31,478.89-342.17l-1.15-3.41Z"/>
            <path class="cls-21" d="M1238.1-210.58l-1.25-3.38c-2.56,.94-258.29,97.37-471.83,358.02-125.42,153.09-211.99,332.04-257.3,531.88-56.63,249.73-48.63,532.95,23.79,841.8l3.5-.82c-163.67-698.04,36.2-1130.53,232.68-1370.43,212.92-259.96,467.85-356.12,470.41-357.06Z"/>
            <path class="cls-33" d="M1213.44-225.76l-1.34-3.34c-2.54,1.02-256.46,105.17-463.31,372.95-121.49,157.27-203.24,339.39-242.98,541.29-49.66,252.3-33.48,536.37,48.1,844.3l3.48-.93c-184.37-695.98,3.81-1135.86,194.13-1382.33,206.25-267.08,459.38-370.94,461.92-371.96Z"/>
            <path class="cls-18" d="M1188.78-240.93l-1.44-3.3c-2.52,1.1-254.64,112.97-454.8,387.88-117.56,161.46-194.49,346.75-228.65,550.71-42.69,254.87-18.33,539.78,72.41,846.8l3.46-1.02c-205.08-693.92-28.59-1141.2,155.59-1394.23,199.58-274.19,450.91-385.75,453.43-386.84Z"/>
          </g>
        </g>
      </g>
      <g>
        <circle class="cls-3" cx="94.71" cy="198.83" r="4.73"/>
        <circle class="cls-5" cx="94.71" cy="227.88" r="4.73"/>
        <path class="cls-4" d="M89.98,256.93c0,2.61,2.12,4.73,4.73,4.73s4.73-2.12,4.73-4.73-2.12-4.73-4.73-4.73-4.73,2.12-4.73,4.73Z"/>
        <circle class="cls-6" cx="94.71" cy="285.98" r="4.73"/>
        <circle class="cls-1" cx="94.71" cy="315.03" r="4.73"/>
      </g>
    </g>
  </g>
</svg>