<?xml version="1.0" encoding="UTF-8"?>
<svg id="Layer_1" data-name="Layer 1" xmlns="http://www.w3.org/2000/svg" viewBox="0 0 557 549">
  <defs>
    <style>
      .cls-1 {
        fill: none;
        opacity: .28;
        stroke: #ba8f57;
        stroke-miterlimit: 10;
      }
    </style>
  </defs>
  <path class="cls-1" d="M296.04,188.07c-5.2,1.96-6.47,5.73-6.58,10.2-.01,.55-.25,1.49-.57,1.59-3.18,.94-2.96,3.77-2.77,5.9,.41,4.81-2.78,9.59-.08,14.39,.18,.32,.04,1.17-.22,1.34-3.98,2.52-1.59,6.15-1.65,9.33-.02,.73,.38,1.47,.58,2.2-.26,.2-.51,.4-.77,.6-1.88-2.13-3.81-4.21-5.6-6.4-1.16-1.42-1.72-3.37-4.17-3.33-.41,0-1.08-1.67-1.22-2.62-.42-2.85,.13-6.16-1.15-8.48-1.49-2.68-.93-4.9-.59-7.39,.08-.59,.54-1.22,.41-1.72-.25-.95-.62-2.43-1.25-2.61-1.33-.37-2.7-.07-2.92,1.97-.11,1.01-1.08,1.89-1.55,2.89-.4,.85-.79,1.75-.9,2.67-.15,1.26-.04,2.54-.04,4-7.39-.56-7.37,5.73-10.33,10.22-.4-2.49-.74-4.98-1.22-7.45-.38-1.96-1.26-3.87-1.34-5.82-.08-2.01,.37-4.09,.9-6.06,.68-2.56,2.97-4.71,1.4-7.85-.35-.71,.98-2.49,1.84-3.53,1.57-1.9,3.36-3.61,5.14-5.5-.53-.78-1-1.48-1.66-2.46,1.89-1.59,3.69-3.1,5.46-4.58-4.63,.08-4.61,.1-7.57,3.31-.59,.64-1.38,1.55-2.08,1.56-5.44,.04-6.84,4.37-8.87,8.06-.42,.77-.71,1.61-1.14,2.59-5.94-2.69-8.56,2.84-13.45,5.57,.82-3.46,1.44-6.08,2.08-8.7,.18-.76,.82-1.88,.53-2.21-2.68-3.09,.33-4.6,1.74-6.45,.89-1.17,2.31-1.93,3.22-3.09,.75-.96,1.04-2.26,1.62-3.37,.44-.83,.86-1.82,1.58-2.34,1.91-1.41,3.97-2.62,6.13-4.01-.37-.77-.73-1.52-1.14-2.39,.46-.37,.86-.84,1.37-1.08,5.45-2.59,11.12-4.38,17.22-4.51,.6-.01,1.27,.08,1.77-.16,.54-.26,.93-.85,1.39-1.3-.5-.37-.96-.98-1.51-1.06-1.17-.18-2.41,.05-3.57-.15-1.68-.3-3.3-.92-4.97-1.23-1.13-.2-2.35-.24-3.49-.09-1.57,.21-3.51,1.45-4.58,.89-4.13-2.15-6.94,.74-10.24,1.95-.78,.29-1.82-.05-2.73-.2-1.04-.18-2.13-.85-3.06-.65-4.54,.98-9.04,2.16-13.54,3.31-.71,.18-1.36,.57-2.04,.87-.25-.28-.5-.56-.75-.84,2.49-2.53,4.93-5.13,7.5-7.58,1.31-1.25,3.33-1.85,3.01-4.33-.05-.41,1.2-1.27,1.96-1.45,3.09-.73,6.22-1.33,9.36-1.87,1.28-.22,2.28-.31,2.24-2.07-.01-.54,1.15-1.53,1.83-1.58,2.38-.19,4.78-.1,7.17-.03,2.18,.06,4.51,1.28,6.18-1.41,.3-.48,1.9-.35,2.84-.18,4.41,.81,8.78,1.83,13.2,2.56,1.05,.17,2.24-.46,3.37-.72-.67-.83-1.16-2.04-2.03-2.43-5.36-2.41-10.18-6.32-16.52-6.11-.47,.02-1.17-.12-1.38-.43-2.42-3.61-6.04-2.24-9.25-2.15-1.67,.05-2.84,.38-3.82-1.65-.52-1.07-2.63-1.52-4.11-1.93-1.9-.52-3.89-.72-6.08-1.1,.24-.48,.33-1,.56-1.07,6.73-2.22,13.1-6.25,20.77-3.84,1.34,.42,3.07-.45,4.63-.59,.94-.09,1.98-.16,2.84,.14,1.97,.69,3.85,1.63,5.78,2.44,.63,.27,1.58,.83,1.91,.6,3.28-2.31,5.03,.64,7.21,2,.84,.52,1.75,1.12,2.28,1.91,2.14,3.17,5.37,3.56,9.51,3.71-3.86-2.79-4.36-7.4-8.84-9.53-3.09-1.47-5.46-4.7-9.18-5.56-.25-.06-.59-.34-.64-.57-1.07-5.04-5.4-6.21-9.32-7.87-.07-.03-.1-.16-.6-1.04,2.52-.23,4.74-.63,6.94-.6,5.18,.06,9.97,1.04,14.87,3.38,3.3,1.58,6.17,3.14,8.58,5.76,.07,.07,.15,.21,.21,.2,4.88-.33,5.95,4.01,8.39,7.35,.97-1.5,1.67-2.63,2.42-3.74,1.15-1.72,2.05-3.64,4.82-3.19,.72,.12,1.77-1.08,2.49-1.85,3.32-3.57,13.6-7.8,18.41-7.63,2.77,.1,5.56-.07,8.33-.01,.82,.02,1.63,.37,2.46,1.18-1.44,.56-2.99,.93-4.29,1.73-1.59,.98-3.91,2.08-4.25,3.53-.82,3.46-3.59,3.62-5.88,4.97-3.36,1.98-6.61,4.29-9.42,6.97-1.57,1.49-2.18,4-3.28,6.17,2.59,.15,5.18,.16,7.3-2.42,1.37-1.66,3.29-2.87,5.03-4.2,1.46-1.1,2.85-2.72,4.93-.79,.33,.31,1.5-.1,2.19-.37,1.66-.66,3.28-1.46,4.92-2.18,1.57-.68,3.04-1.35,4.67,.19,.53,.51,1.88,.29,2.83,.19,2.08-.22,4.19-.4,6.2-.91,4.53-1.14,7.75,2.52,11.83,3.05,1.46,.19,2.83,1.09,4.24,1.66-.05,.24-.09,.49-.14,.73-2.47,.52-4.94,1.01-7.4,1.6-.85,.2-2.23,.5-2.37,1.03-.9,3.28-3.27,1.95-5.29,2.01-2.75,.09-5.86-.96-7.85,2.15-.25,.39-1.08,.6-1.64,.57-6.24-.24-10.99,3.61-16.26,5.98-.9,.41-1.38,1.76-2.05,2.68,1.15,.22,2.36,.78,3.44,.6,4.41-.74,8.77-1.84,13.2-2.51,1.1-.17,2.35,.82,3.56,1.2,.88,.28,1.81,.6,2.71,.59,3.08-.03,6.17-.28,9.25-.23,.78,.01,2.23,.87,2.21,1.27-.13,2.25,1.21,2.26,2.83,2.45,2.27,.26,4.52,.72,6.75,1.26,2.02,.49,4.53,.47,4.24,3.8-.05,.59,1.36,1.29,2.07,1.97,2.77,2.7,5.53,5.41,8.29,8.11-.25,.3-.49,.59-.74,.89-.67-.28-1.32-.66-2.01-.83-4.7-1.17-9.38-2.44-14.13-3.32-1.17-.22-2.59,.87-4.1,1.44-1.72-.82-3.7-2.05-5.86-2.69-1.45-.43-3.15,.08-4.73-.03-1.75-.12-3.49-.67-5.23-.65-1.64,.02-3.27,.63-4.92,.82-2.05,.23-4.14,.16-6.17,.45-1,.14-1.91,.82-2.87,1.26,.98,.46,1.94,1.27,2.94,1.31,6.78,.28,13.1,1.99,19.18,5.47-.56,.95-.98,1.66-1.49,2.53,1.51,.89,2.93,1.59,4.2,2.5,1.77,1.26,4.27,2.06,3.55,5.17-.11,.46,.85,1.21,1.38,1.76,1.6,1.63,3.28,3.18,4.85,4.84,1.24,1.31,2.6,2.62,.63,4.54-.35,.34,.15,1.62,.34,2.45,.63,2.65,1.31,5.29,2.16,8.69-4.84-2.16-7.23-8.09-13.29-5.27-.9-1.79-1.69-3.81-2.86-5.59-1.67-2.54-3.22-5.18-7.07-5.15-1.17,.01-2.39-1.83-3.53-2.88-1.22-1.12-2.32-2.49-4.21-1.46-.37,2.55,5.74,3.05,1.56,6.26,2.08,2.36,4.21,4.45,5.91,6.85,.71,1,.5,2.65,.7,4.01,.15,1.03,.14,2.11,.45,3.08,.64,1.98,1.51,3.89,2.15,5.88,.27,.83,.65,2.11,.25,2.6-2.85,3.55-1.16,7.88-2.21,11.71-.2,.74-.46,1.46-.87,2.74-1.21-2.69-2.03-4.96-3.21-7.03-1.15-2.03-2.28-4.38-5.48-3.51-.26,.07-1.32-1.32-1.29-2,.09-2.09,.73-4.16-1.74-5.49-.46-.25-.51-1.43-.58-2.2-.19-1.96-1.64-2.32-3-1.92-.64,.19-1.41,1.75-1.26,2.51,.66,3.3,1.53,6.31-.56,9.69-1.06,1.71-.36,4.48-.54,6.76-.15,1.96-.04,4.07-3.01,4.22-.7,.04-1.38,1.26-2,2-2.06,2.46-4.08,4.95-6.12,7.43-.25-.16-.5-.31-.75-.47,.36-2.47,.83-4.93,1.05-7.41,.14-1.63,.39-3.45-1.94-4.14-.33-.1-.49-1.54-.35-2.3,.53-2.85,1.86-5.5-.13-8.55-.86-1.32-.03-3.69-.14-5.58-.12-2.03,.09-4.18-2.4-5.33-.68-.31-.89-1.86-1.11-2.88-.6-2.91-.19-6.32-4.16-7.38-.52-.14-.83-1.04-1.75-2.29-.14,1.69-.31,2.68-.28,3.66,.59,22.71,1.21,45.42,1.82,68.13,.45,16.63,.85,33.26,1.44,49.88,.04,1.25,1.26,2.73,2.34,3.63,3.26,2.73,6.78,5.15,10.05,7.87,.69,.57,.75,1.89,1.11,2.87-.91,.25-1.82,.72-2.73,.72-12.36,.04-24.73,.04-37.09-.02-1.01,0-2.01-.53-3.02-.81,.43-1.05,.58-2.44,1.35-3.1,2.93-2.51,5.93-5,9.18-7.07,1.98-1.26,3.04-2.51,3.09-4.91,.16-7.56,.55-15.12,.74-22.69,.51-20.12,.93-40.24,1.46-60.36,.29-11.06,.75-22.11,1.12-33.16,.04-1.3,0-2.59,0-3.92Z"/>
  <path class="cls-1" d="M291.31,355.36c-28.05-19.45-58.68-30.76-92.17-34.6,0-.34,.02-.67,.03-1.01,2.18-.34,4.35-.88,6.55-1,20.94-1.12,40.9,3.24,59.84,11.8,10.86,4.91,21.2,10.98,31.63,16.78,2.54,1.41,4.26,1.46,6.73-.13,19.93-12.88,41.24-22.55,64.73-26.84,10.34-1.89,20.77-2.36,31.23-1.06,.58,.07,1.16,.21,1.73,.36,.16,.04,.26,.28,.91,1.05-33.95,3.77-64.67,15.12-92.8,34.62,1.13,1.04,1.82,1.72,2.56,2.34,5.99,4.95,12.09,9.76,17.93,14.87,2.28,2,3.78,2.08,6.4,.45,3.4-2.11,7.25-3.82,11.13-4.76,2.62-.63,5.74-.03,8.43,.73,3.64,1.02,3.68,2.62,.87,5.12-3.25,2.91-6.51,5.85-9.35,9.14-2.9,3.37-2.48,5.27,1.06,7.92,2.23,1.67,4.4,3.65,6.94,4.61,2.48,.94,5.39,.99,8.11,1.04,3.14,.06,5.95,.69,8.14,3.02,2.65,2.81,3.91,6.14,2.49,9.87-1.62,4.28-5.1,6.5-9.51,7.24-4.09,.68-7.74-.67-10.93-3.08-2.61-1.97-4.99-4.26-7.4-6.48-2.2-2.02-4.25-4.21-6.48-6.19-4.6-4.1-4.55-3.9-10.19-1.18-2.14,1.03-4.79,1.58-7.15,1.44-5.29-.3-7.58-4.89-4.87-9.43,1.16-1.94,2.63-3.77,4.24-5.37,1.67-1.66,2.07-2.98,.19-4.7-6.69-6.11-13.28-12.32-20.05-18.33-.7-.62-2.86-.65-3.54-.05-6.92,6.14-13.67,12.48-20.47,18.76-1.51,1.39-1.27,2.57,.13,4.02,1.78,1.85,3.53,3.82,4.86,6.01,2.41,3.97,.39,8.12-4.21,9.04-3.29,.66-6.28-.12-9.12-1.9-4.18-2.62-4.32-2.64-7.97,.7-3.82,3.49-7.42,7.22-11.24,10.71-3.89,3.55-8.12,6.42-13.8,6.11-5.87-.32-11.21-5.33-11.02-10.52,.2-5.55,4.98-10.12,11.19-9.49,7.01,.71,11.63-3.17,16.48-6.93,2-1.55,2.24-3.67,.61-5.51-3.08-3.47-6.44-6.7-9.61-10.1-.96-1.03-1.65-2.3-2.46-3.46,1.18-.81,2.26-1.93,3.56-2.38,6.35-2.21,11.94,.13,17.28,3.31,4.88,2.9,4.81,2.93,9.13-.66,5.52-4.58,11.1-9.08,16.65-13.63,.74-.61,1.43-1.28,2.56-2.29Z"/>
</svg>