<svg id="Layer_1" data-name="Layer 1" xmlns="http://www.w3.org/2000/svg" viewBox="0 0 206.35 309.58"><defs><style>.cls-1{fill:none;stroke:#ba8f57;stroke-miterlimit:10;stroke-width:2px;isolation:isolate;}</style></defs><path class="cls-1" d="M296,188.07c-5.2,2-6.47,5.73-6.58,10.2,0,.55-.25,1.49-.57,1.59-3.18.94-3,3.77-2.77,5.9.41,4.81-2.78,9.59-.08,14.39a1.42,1.42,0,0,1-.22,1.34c-4,2.52-1.59,6.15-1.65,9.33a8.15,8.15,0,0,0,.58,2.2l-.77.6c-1.88-2.13-3.81-4.21-5.6-6.4-1.16-1.42-1.72-3.37-4.17-3.33-.41,0-1.08-1.67-1.22-2.62-.42-2.85.13-6.16-1.15-8.48-1.49-2.68-.93-4.9-.59-7.39.08-.59.54-1.22.41-1.72-.25-1-.62-2.43-1.25-2.61-1.33-.37-2.7-.07-2.92,2-.11,1-1.08,1.89-1.55,2.89a9,9,0,0,0-.9,2.67,35.07,35.07,0,0,0,0,4c-7.39-.56-7.37,5.73-10.33,10.22-.4-2.49-.74-5-1.22-7.45-.38-2-1.26-3.87-1.34-5.82a20.65,20.65,0,0,1,.9-6.06c.68-2.56,3-4.71,1.4-7.85-.35-.71,1-2.49,1.84-3.53,1.57-1.9,3.36-3.61,5.14-5.5l-1.66-2.46,5.46-4.58c-4.63.08-4.61.1-7.57,3.31-.59.64-1.38,1.55-2.08,1.56-5.44,0-6.84,4.37-8.87,8.06-.42.77-.71,1.61-1.14,2.59-5.94-2.69-8.56,2.84-13.45,5.57.82-3.46,1.44-6.08,2.08-8.7.18-.76.82-1.88.53-2.21-2.68-3.09.33-4.6,1.74-6.45.89-1.17,2.31-1.93,3.22-3.09a21.4,21.4,0,0,0,1.62-3.37,6.62,6.62,0,0,1,1.58-2.34c1.91-1.41,4-2.62,6.13-4-.37-.77-.73-1.52-1.14-2.39a7.65,7.65,0,0,1,1.37-1.08,42,42,0,0,1,17.22-4.51,4.46,4.46,0,0,0,1.77-.16,6.27,6.27,0,0,0,1.39-1.3c-.5-.37-1-1-1.51-1.06-1.17-.18-2.41,0-3.57-.15-1.68-.3-3.3-.92-5-1.23a11.67,11.67,0,0,0-3.49-.09c-1.57.21-3.51,1.45-4.58.89-4.13-2.15-6.94.74-10.24,2a5.89,5.89,0,0,1-2.73-.2c-1-.18-2.13-.85-3.06-.65-4.54,1-9,2.16-13.54,3.31a13.44,13.44,0,0,0-2,.87l-.75-.84c2.49-2.53,4.93-5.13,7.5-7.58,1.31-1.25,3.33-1.85,3-4.33-.05-.41,1.2-1.27,2-1.45,3.09-.73,6.22-1.33,9.36-1.87,1.28-.22,2.28-.31,2.24-2.07,0-.54,1.15-1.53,1.83-1.58a66,66,0,0,1,7.17,0c2.18.06,4.51,1.28,6.18-1.41.3-.48,1.9-.35,2.84-.18,4.41.81,8.78,1.83,13.2,2.56,1.05.17,2.24-.46,3.37-.72-.67-.83-1.16-2-2-2.43-5.36-2.41-10.18-6.32-16.52-6.11a1.84,1.84,0,0,1-1.38-.43c-2.42-3.61-6-2.24-9.25-2.15-1.67.05-2.84.38-3.82-1.65-.52-1.07-2.63-1.52-4.11-1.93-1.9-.52-3.89-.72-6.08-1.1.24-.48.33-1,.56-1.07,6.73-2.22,13.1-6.25,20.77-3.84,1.34.42,3.07-.45,4.63-.59a6.92,6.92,0,0,1,2.84.14c2,.69,3.85,1.63,5.78,2.44.63.27,1.58.83,1.91.6,3.28-2.31,5,.64,7.21,2a7.34,7.34,0,0,1,2.28,1.91c2.14,3.17,5.37,3.56,9.51,3.71-3.86-2.79-4.36-7.4-8.84-9.53-3.09-1.47-5.46-4.7-9.18-5.56a1,1,0,0,1-.64-.57c-1.07-5-5.4-6.21-9.32-7.87-.07,0-.1-.16-.6-1,2.52-.23,4.74-.63,6.94-.6a34.34,34.34,0,0,1,14.87,3.38c3.3,1.58,6.17,3.14,8.58,5.76.07.07.15.21.21.2,4.88-.33,6,4,8.39,7.35,1-1.5,1.67-2.63,2.42-3.74,1.15-1.72,2.05-3.64,4.82-3.19.72.12,1.77-1.08,2.49-1.85,3.32-3.57,13.6-7.8,18.41-7.63,2.77.1,5.56-.07,8.33,0a3.61,3.61,0,0,1,2.46,1.18,26,26,0,0,0-4.29,1.73c-1.59,1-3.91,2.08-4.25,3.53-.82,3.46-3.59,3.62-5.88,5a51.6,51.6,0,0,0-9.42,7c-1.57,1.49-2.18,4-3.28,6.17,2.59.15,5.18.16,7.3-2.42a29.27,29.27,0,0,1,5-4.2c1.46-1.1,2.85-2.72,4.93-.79.33.31,1.5-.1,2.19-.37,1.66-.66,3.28-1.46,4.92-2.18s3-1.35,4.67.19c.53.51,1.88.29,2.83.19a44.11,44.11,0,0,0,6.2-.91c4.53-1.14,7.75,2.52,11.83,3.05,1.46.19,2.83,1.09,4.24,1.66-.05.24-.09.49-.14.73-2.47.52-4.94,1-7.4,1.6-.85.2-2.23.5-2.37,1-.9,3.28-3.27,2-5.29,2-2.75.09-5.86-1-7.85,2.15a2.1,2.1,0,0,1-1.64.57c-6.24-.24-11,3.61-16.26,6-.9.41-1.38,1.76-2.05,2.68,1.15.22,2.36.78,3.44.6,4.41-.74,8.77-1.84,13.2-2.51,1.1-.17,2.35.82,3.56,1.2a9,9,0,0,0,2.71.59c3.08,0,6.17-.28,9.25-.23.78,0,2.23.87,2.21,1.27-.13,2.25,1.21,2.26,2.83,2.45a55.67,55.67,0,0,1,6.75,1.26c2,.49,4.53.47,4.24,3.8-.05.59,1.36,1.29,2.07,2l8.29,8.11-.74.89a14.44,14.44,0,0,0-2-.83c-4.7-1.17-9.38-2.44-14.13-3.32-1.17-.22-2.59.87-4.1,1.44a39.93,39.93,0,0,0-5.86-2.69c-1.45-.43-3.15.08-4.73,0-1.75-.12-3.49-.67-5.23-.65s-3.27.63-4.92.82c-2.05.23-4.14.16-6.17.45a11.31,11.31,0,0,0-2.87,1.26c1,.46,1.94,1.27,2.94,1.31a41.17,41.17,0,0,1,19.18,5.47l-1.49,2.53c1.51.89,2.93,1.59,4.2,2.5,1.77,1.26,4.27,2.06,3.55,5.17-.11.46.85,1.21,1.38,1.76,1.6,1.63,3.28,3.18,4.85,4.84,1.24,1.31,2.6,2.62.63,4.54-.35.34.15,1.62.34,2.45.63,2.65,1.31,5.29,2.16,8.69-4.84-2.16-7.23-8.09-13.29-5.27a53.7,53.7,0,0,0-2.86-5.59c-1.67-2.54-3.22-5.18-7.07-5.15-1.17,0-2.39-1.83-3.53-2.88s-2.32-2.49-4.21-1.46c-.37,2.55,5.74,3.05,1.56,6.26a87,87,0,0,1,5.91,6.85c.71,1,.5,2.65.7,4a19.37,19.37,0,0,0,.45,3.08c.64,2,1.51,3.89,2.15,5.88.27.83.65,2.11.25,2.6-2.85,3.55-1.16,7.88-2.21,11.71-.2.74-.46,1.46-.87,2.74-1.21-2.69-2-5-3.21-7s-2.28-4.38-5.48-3.51c-.26.07-1.32-1.32-1.29-2,.09-2.09.73-4.16-1.74-5.49-.46-.25-.51-1.43-.58-2.2-.19-2-1.64-2.32-3-1.92a2.91,2.91,0,0,0-1.26,2.51c.66,3.3,1.53,6.31-.56,9.69-1.06,1.71-.36,4.48-.54,6.76-.15,2,0,4.07-3,4.22-.7,0-1.38,1.26-2,2-2.06,2.46-4.08,5-6.12,7.43l-.75-.47c.36-2.47.83-4.93,1.05-7.41.14-1.63.39-3.45-1.94-4.14-.33-.1-.49-1.54-.35-2.3.53-2.85,1.86-5.5-.13-8.55-.86-1.32,0-3.69-.14-5.58s.09-4.18-2.4-5.33c-.68-.31-.89-1.86-1.11-2.88-.6-2.91-.19-6.32-4.16-7.38-.52-.14-.83-1-1.75-2.29-.14,1.69-.31,2.68-.28,3.66q.88,34.06,1.82,68.13c.45,16.63.85,33.26,1.44,49.88,0,1.25,1.26,2.73,2.34,3.63,3.26,2.73,6.78,5.15,10,7.87.69.57.75,1.89,1.11,2.87a11,11,0,0,1-2.73.72q-18.54.06-37.09,0a12.1,12.1,0,0,1-3-.81c.43-1.05.58-2.44,1.35-3.1a82.39,82.39,0,0,1,9.18-7.07c2-1.26,3-2.51,3.09-4.91.16-7.56.55-15.12.74-22.69.51-20.12.93-40.24,1.46-60.36.29-11.06.75-22.11,1.12-33.16,0-1.3,0-2.59,0-3.92Z" transform="translate(-198.14 -108.52)"/><path class="cls-1" d="M291.31,355.36a198.6,198.6,0,0,0-92.17-34.6c0-.34,0-.67,0-1,2.18-.34,4.35-.88,6.55-1,20.94-1.12,40.9,3.24,59.84,11.8,10.86,4.91,21.2,11,31.63,16.78,2.54,1.41,4.26,1.46,6.73-.13,19.93-12.88,41.24-22.55,64.73-26.84a102.56,102.56,0,0,1,31.23-1.06,13,13,0,0,1,1.73.36c.16,0,.26.28.91,1a198.12,198.12,0,0,0-92.8,34.62c1.13,1,1.82,1.72,2.56,2.34,6,4.95,12.09,9.76,17.93,14.87,2.28,2,3.78,2.08,6.4.45a38.86,38.86,0,0,1,11.13-4.76c2.62-.63,5.74,0,8.43.73,3.64,1,3.68,2.62.87,5.12a102.17,102.17,0,0,0-9.35,9.14c-2.9,3.37-2.48,5.27,1.06,7.92,2.23,1.67,4.4,3.65,6.94,4.61s5.39,1,8.11,1c3.14.06,5.95.69,8.14,3,2.65,2.81,3.91,6.14,2.49,9.87-1.62,4.28-5.1,6.5-9.51,7.24-4.09.68-7.74-.67-10.93-3.08-2.61-2-5-4.26-7.4-6.48-2.2-2-4.25-4.21-6.48-6.19-4.6-4.1-4.55-3.9-10.19-1.18a15.12,15.12,0,0,1-7.15,1.44c-5.29-.3-7.58-4.89-4.87-9.43a27.78,27.78,0,0,1,4.24-5.37c1.67-1.66,2.07-3,.19-4.7-6.69-6.11-13.28-12.32-20.05-18.33a3.65,3.65,0,0,0-3.54-.05c-6.92,6.14-13.67,12.48-20.47,18.76-1.51,1.39-1.27,2.57.13,4a35.43,35.43,0,0,1,4.86,6c2.41,4,.39,8.12-4.21,9a12.13,12.13,0,0,1-9.12-1.9c-4.18-2.62-4.32-2.64-8,.7-3.82,3.49-7.42,7.22-11.24,10.71s-8.12,6.42-13.8,6.11c-5.87-.32-11.21-5.33-11-10.52A10,10,0,0,1,237.09,397c7,.71,11.63-3.17,16.48-6.93,2-1.55,2.24-3.67.61-5.51-3.08-3.47-6.44-6.7-9.61-10.1a30.44,30.44,0,0,1-2.46-3.46c1.18-.81,2.26-1.93,3.56-2.38,6.35-2.21,11.94.13,17.28,3.31,4.88,2.9,4.81,2.93,9.13-.66,5.52-4.58,11.1-9.08,16.65-13.63.74-.61,1.43-1.28,2.56-2.29Z" transform="translate(-198.14 -108.52)"/></svg>