<svg id="Layer_1" data-name="Layer 1" xmlns="http://www.w3.org/2000/svg" viewBox="0 0 579.43 313.72"><defs><style>.cls-1{opacity:0.28;}.cls-2{fill:none;stroke:#ba8f57;stroke-miterlimit:10;}</style></defs><g class="cls-1"><path class="cls-2" d="M547.1,187.67c-1.13-16.94-2.21-33.51-3.25-49.53-1.31-20.19-2.31-55.37-3.38-70.92a61.37,61.37,0,0,0,5.84,7l.79.8,0,0a2.21,2.21,0,0,0,1.3.61,1.09,1.09,0,0,0,.64-.21c.87-.63,2.61-1.88-10.78-37a.27.27,0,0,0,0-.12c-.26-.68-.53-1.37-.8-2-.91-2.37-1.88-4.89-2.93-7.57a.35.35,0,0,0,0-.08l0-.09-.07-.07a.46.46,0,0,0-.07-.07l-.1-.05-.08,0-.11,0-.09,0h0a.65.65,0,0,0-.6.41l-7.63,17.78a.87.87,0,0,0,0,.22v.06a.57.57,0,0,0,0,.18v0l.32.88c.88,2.46,1.88,5.24,2.92,8.43,1.51,17.89,3.27,64.75,5.54,99.8,1,15.93,2.1,32.41,3.23,49.25,1.06,16.26,1.57,27.53,1.91,35.21l-.21.16c-1,.93-4.54,2.49-5.86,3.08-16.43,7.31-38.93,5.07-52.34-5.22l-4.29-3.29a152.39,152.39,0,0,1,24.35-7.76h.06a9.74,9.74,0,0,1,3.73-.07h.28l.13-.05.08,0,.11-.09.06-.05a.67.67,0,0,0,.12-.2l6.85-18.1a.75.75,0,0,0,0-.26v0a.65.65,0,0,0-.06-.24v0h0a0,0,0,0,0,0,0l-.06-.07a.74.74,0,0,0-.12-.13.39.39,0,0,0-.11-.06.6.6,0,0,0-.11-.06,29.54,29.54,0,0,1-2.84-1.38c-6.84-3.54-22.86-11.84-44.24-12.86-12.12-1-36.73,3.21-49.13,9.94h0a.57.57,0,0,0-.15.12l0,0a.52.52,0,0,0-.11.19l-6.85,18.1a.65.65,0,0,0,0,.19v.19s0,.05,0,.08a.42.42,0,0,0,0,.1l.05.07.06.09h0l.06.05.09.07.08,0,.1,0h.19a.15.15,0,0,0,.09,0h.09c12.2-3.86,19.64-.5,33.41,9.87C426.45,242,410.56,253,398.82,265.43c-2.9,3-5.82,6.29-8.92,9.73-8.27,9.19-17.64,19.6-28,27.31-7.24,5.38-18.05,10.27-25.87,9.06A15.73,15.73,0,0,1,324.4,304c-5.47-9-4-24.58-.41-35.25a135.44,135.44,0,0,1,8.7-20.32,38.23,38.23,0,0,0,2-4.24l.25-.78c.77-2.17.7-2.87.34-3.28a.9.9,0,0,0-.87-.28c-2.12.42-10.11,13.52-15.92,31.07-3.55,10.6-4.82,31.66,3.47,45.28a26.88,26.88,0,0,0,19.66,13h.07c.45,0,.89,0,1.33.05,8.43.11,14.78-3.29,19.42-6.31,10.21-6.73,19.91-17.8,28.48-27.56,3-3.44,5.86-6.69,8.64-9.66,16.33-17.32,37.85-31.56,58-41.75,6.3,4.81,11.87,9.07,19.13,14.64,8.32,6.39,19.93,9.83,31.48,10a53.35,53.35,0,0,0,22.21-4.28h0a32.62,32.62,0,0,0,6.24-3.59A21.33,21.33,0,0,0,544,250.16c3.83-9.86,6.1-19.14,3.11-62.56Zm-85.44,36-9.5-7.23-2.65-2.05a71.49,71.49,0,0,1,11.88-.25,92.14,92.14,0,0,1,17.25,2.5c-5.49,2.07-11.19,4.42-17,7Z" transform="translate(-11.98 -24.43)"/><path class="cls-2" d="M277.76,104.64c-3.53.13-7.08.24-10.63.32-1.08-18-2.18-32-3.32-42.45-1-8.17-3-13.18-6.07-14.88-2.67-1.5-5.67-.15-7.63.76-1.31.6-2.17,1-2.76.38S247,47,250.19,40.91l3.71-7.73c2.9-5.92,5.94-8.68,9-8.2,5.29.82,8.64,11.07,9.9,19.59,2,13.83,3.56,33.07,4.95,60.09Z" transform="translate(-11.98 -24.43)"/><path class="cls-2" d="M407,184.36c-1.7,9.93-5.34,17.69-10,21.29a21.34,21.34,0,0,1-4.53,2.55,52.64,52.64,0,0,1-17.94,3.37,26.85,26.85,0,0,1-7.95-1.2,16.34,16.34,0,0,1-6.43-3.77,32.91,32.91,0,0,1-5.28-7.74,34.28,34.28,0,0,1-2.81-9.23c-.81-4.8-1.48-5.47-1.73-5.54,0,0-.22,0-.54.44-1.35,1.67-4.49,5.59-7,8.37a78.65,78.65,0,0,1-9.39,9.4h0c-8.56,6.42-20.73,10.92-31.31,10.79-5.28-.07-10.17-1.29-14-4l-.12-.09c-5.22-3.7-16.06-11.4-17.63-40.06-.67-16.18-1.33-30.6-2-43.41,3.51-.1,7-.23,10.46-.37q.51,12.18,1,26.13c1.51,27.5,7.33,33.85,12.68,37.65,11,7.81,31.23,2.58,43.67-6.75a78.82,78.82,0,0,0,9.21-9.24c.79-.85,1.53-1.71,2.24-2.54a43.67,43.67,0,0,1,4.83-5c2-1.7,3.26-2.23,4.18-1.78,1.19.59,1.1,2.43,1,4.58a19.76,19.76,0,0,0,0,3.08,19.26,19.26,0,0,0,2.16,8,31.85,31.85,0,0,0,5,7.36c6.88,6.74,20.47,5.08,30.88,1.29a20.05,20.05,0,0,0,4.17-2.36c.49-.35.58-.46.57-2.19-.88-7.39-4.24-16.7-9.23-25.57a.75.75,0,0,1-.07-.47l3.6-19a.67.67,0,0,1,.52-.54.69.69,0,0,1,.7.25c7.86,10.31,14.34,28.64,11.1,46.35Z" transform="translate(-11.98 -24.43)"/><path class="cls-2" d="M359.64,260.7a.87.87,0,0,0,.07,1.2q2.32,2.13,4.57,4.22c3.67,3.39,7.13,6.6,10.67,9.68a.86.86,0,0,0,.56.21h.07a.85.85,0,0,0,.59-.3l12.4-14.41a.87.87,0,0,0-.09-1.22c-3.52-3.06-7-6.25-10.62-9.64q-2-1.86-4.06-3.74a.86.86,0,0,0,.14-.13l12.4-14.41a.86.86,0,0,0-.08-1.21c-2.08-1.85-5.17-4.68-8.44-7.67-2.22-2-4.53-4.15-6.65-6.08a.82.82,0,0,0-.63-.22.83.83,0,0,0-.6.3l-12.4,14.41a.86.86,0,0,0,.07,1.2c2.12,1.93,4.42,4,6.64,6.07,3,2.75,5.84,5.36,7.91,7.21l-.13.12-12.4,14.41Z" transform="translate(-11.98 -24.43)"/><path class="cls-2" d="M350.73,155.37a.84.84,0,0,0,.6.25h.05a.84.84,0,0,0,.62-.3l12.4-14.41a.86.86,0,0,0,0-1.18c-4.27-4.22-10.54-10.11-14.88-14.17a.87.87,0,0,0-.64-.23.86.86,0,0,0-.61.3L335.82,140a.87.87,0,0,0,.06,1.19C340.22,145.29,346.49,151.17,350.73,155.37Z" transform="translate(-11.98 -24.43)"/><path class="cls-2" d="M303.49,47c3,2.74,5.83,5.34,7.89,7.19l-.13.12-12.4,14.41a.87.87,0,0,0,.07,1.2c1.55,1.42,3.07,2.82,4.57,4.22,3.67,3.4,7.13,6.6,10.67,9.68a.86.86,0,0,0,.56.21h.07a.85.85,0,0,0,.59-.3l12.4-14.41a.87.87,0,0,0-.09-1.22c-3.52-3.06-7-6.26-10.64-9.65l-4-3.73a.86.86,0,0,0,.14-.13l12.4-14.41a.86.86,0,0,0-.08-1.21c-2.09-1.86-5.19-4.7-8.47-7.7-2.21-2-4.5-4.13-6.62-6.05a.82.82,0,0,0-.63-.22.83.83,0,0,0-.6.3l-12.4,14.41a.86.86,0,0,0,.07,1.2c2.13,1.93,4.43,4,6.66,6.08Z" transform="translate(-11.98 -24.43)"/><path class="cls-2" d="M421.56,181.61a.64.64,0,0,0,.35.1.71.71,0,0,0,.52-.23c1.27-1.4,2.58-2,8.76-4.33,18.63-6.89,67.9-24.74,83.07-30.28a.7.7,0,0,0,.41-.4l3.91-10.34a.68.68,0,0,0-.88-.89c-10.88,4-31.57,11.57-49.82,18.29l-21.11,7.76c-7,2.57-21.09,7.71-21.59,9.15l-3.91,10.34a.68.68,0,0,0,.29.83Z" transform="translate(-11.98 -24.43)"/><path class="cls-2" d="M485.88,109.12a154.78,154.78,0,0,0-14.77,18.18c-2.3,3.22-3,4.16-3.6,4.16a.92.92,0,0,1-.37-.11c-.7-.34-.48-1.18-.05-2.53l.2-.65c3.13-10,8-15.77,12.8-21.32.66-.76,1.31-1.53,2-2.3,1.91-1.94,2.65-3.52,2.2-4.6-.55-1.28-3-2.11-6-2.07-5.6-.14-12.55.29-40.69,7,2,23.68,3.59,46.08,3.49,46.29-.53-.54-9.48-6.05-9.48-6.05s-2.08-24.86-4.27-50.11c-.84,3.84-2.77,12.58-2.85,12.58Q356.2,122,278.75,125.15c-3.47.14-7,.27-10.46.37q-29.46.89-60.26.16c-67.51-1.6-115.68-8.69-124.74-10.11-6.7-.42-29.26-12.06-36-15.62C14.57,82.74,15.44,82.47,12.48,80.64c-.56-.34,56.61,12.29,74.58,14.54l3.52.45a1169.07,1169.07,0,0,0,176.58,9.31q5.32-.12,10.63-.32c52.69-1.82,103-7.52,148.85-17.05-1.54-17.74-3-34.46-3.45-41.45l9.57,8.61c.85,6.23,2,17.81,3.16,30.85l3.57-.8C467.85,78,476.22,78,485.75,78.64c4.57.7,7.62,2.87,8.89,6.31,2.21,6-1.22,15.47-8.72,24.16Z" transform="translate(-11.98 -24.43)"/><path class="cls-2" d="M302.86,278.23c-.65-.17-.84.31-1.26,1.36a22.13,22.13,0,0,1-2.46,4.8c-2,2.56-7.67,3.45-10.82,1.7s-6.5-5.83-6.9-12.45c-.61-8.22,2.72-17.28,6.25-26.88.9-2.46,1.84-5,2.73-7.57A134.76,134.76,0,0,0,295,223.92l.36-1.7c.56-3.4.6-4-.18-4.21s-.94,0-3.08,6.43c-1.55,4.62-3.68,10.95-5.75,15.41-.56,1.32-1.14,2.67-1.73,4-5.16,12-11,25.56-10.7,37.67.35,9.1,3.66,15.3,9.83,18.44l.06,0a15.12,15.12,0,0,0,5.21,1.05c3.33,0,7.38-1.21,10.17-6.43,1.83-3.27,3.47-9.85,4-13.35l.08-.59v0c.22-1.81.27-2.29-.4-2.46Z" transform="translate(-11.98 -24.43)"/><path class="cls-2" d="M304.58,181.44a7.88,7.88,0,0,0,5.18-2.27c2.35-2.29,4.09-6.34,4.56-10.51a23.29,23.29,0,0,0,.13-6.5.13.13,0,0,0,0-.06v0c-.14-1.16-.18-1.44-.67-1.44h0c-.48,0-.54.39-.64,1A26,26,0,0,1,312,166.2c-1.28,3.31-3.07,4.1-3.66,4.36a4.29,4.29,0,0,1-5.09-1c-2.32-2.71-2.14-7-1.72-10.41.41-3.16,2-8.18,3.33-12.61.69-2.23,1.34-4.33,1.81-6.08.81-2.84,1.23-6.5.58-7.14a.57.57,0,0,0-.58-.14c-.34.11-.53.45-.71,1.35h0a78.89,78.89,0,0,1-2.94,8.91l-.34.91c-2.83,7.15-6.05,15.25-6.46,21.14-.58,5.61.89,10.56,4.15,13.94a5.89,5.89,0,0,0,4.2,2Z" transform="translate(-11.98 -24.43)"/><path class="cls-2" d="M468.59,46.74h.13a.72.72,0,0,0,.57-.28l1.22-1.68c4.28,5.71,7.73,14.67,9.95,26.19v0a.19.19,0,0,0,0,.07l.06.12a.21.21,0,0,0,0,.06l.13.13h0l.16.09h0a.78.78,0,0,0,.22,0,.59.59,0,0,0,.23,0,.84.84,0,0,0,.21-.11L483.35,70l.12-.13,0,0,.06-.11a.1.1,0,0,0,0,0c1.71-4.69,2.56-10.86,3.37-16.83,1-7.43,2-14.44,4.4-16.22.56-.41,2.26-1.66,7.15,3.31a.67.67,0,0,0,.62.19.69.69,0,0,0,.51-.41l2.08-4.9a.69.69,0,0,0-.05-.64c-2.7-4.25-5.07-6.49-7.25-6.85a3.78,3.78,0,0,0-3.07.86c-3.92,3.15-5.62,14.2-7.27,24.89-.4,2.59-.79,5.13-1.2,7.51-1.93-12.25-7.7-27.26-18.49-28.73a.65.65,0,0,0-.41.07,2.36,2.36,0,0,0-.95.9h0l-2.77,5v0h0a4.1,4.1,0,0,0,.09,3.67C461,43,463,45.58,468.6,46.72Z" transform="translate(-11.98 -24.43)"/><path class="cls-2" d="M361.27,60.6c.31,0,.67,0,1.06-.08.73-.08,1.76-.23,2.94-.4,1.77-.25,4-.56,6-.78,9-.72,14.32-1.4,16.34-2.08,4.3-1.69,9.53-7.76,11.72-11.35l7.82-13.49h0a.84.84,0,0,0,.09-.25v0a1.13,1.13,0,0,0,0-.26v0a.7.7,0,0,0-.09-.24s0,0,0,0a.72.72,0,0,0-.18-.21h0c-4.08-3.46-21.38-6.09-34.15-4.12a.87.87,0,0,0-.6.4L363,42.53a.86.86,0,0,0,.89,1.3c11.41-2.15,23.18-1.21,29.89.66a57.84,57.84,0,0,1-7.07,4,162.91,162.91,0,0,1-15.67,6.59c-4.1,1.55-5.8,2.13-7.77,2.8l-1.56.54-.24.08c-.68.23-1.52.52-1.32,1.36.13.54.51.7,1.06.7Z" transform="translate(-11.98 -24.43)"/><path class="cls-2" d="M590.88,224.31c-1.4-29.4-4.8-81.44-7.54-123.26-.83-12.77-1.62-24.73-2.27-35l.24.35A90.9,90.9,0,0,0,587.1,74l.9,1.06c.17.21.62.76,1.17.76a.9.9,0,0,0,.45-.12c.63-.37,1.58-.92-3.39-17-2.87-9.3-6.75-20.53-10.38-30,0,0,0,0,0-.06a.22.22,0,0,0,0-.08l-.07-.08s0-.05-.07-.06l-.1-.06-.08,0-.12,0-.07,0h-.1a.7.7,0,0,0-.59.41L567,46.38a.58.58,0,0,0-.05.26v0a.71.71,0,0,0,.06.25v0a31.18,31.18,0,0,1,1.91,5.65c.33,1.2.66,2.43,1.07,3.64.71,13.42,2.83,45,5.09,78.49,2.5,37.17,5.34,79.31,6.78,104.8v.13c.14,6.39.32,15.14-4.62,22-9.75,14.12-33,27-43,32.51-5.62,3.11-6,3.3-5.63,4.1a.76.76,0,0,0,.78.48,6.81,6.81,0,0,0,1.57-.31l8.43-2.39h0c28.08-8.22,37.57-14,46.34-36.29,2.14-5.83,5.65-18.18,5.13-35.43Z" transform="translate(-11.98 -24.43)"/><path class="cls-2" d="M496.13,309.6c-.58-.5-.88-.22-2.57,1.33a70.07,70.07,0,0,1-11.14,8.67,56.06,56.06,0,0,1-16.17,6.55c-9.94,2.38-17.39,2.24-21.56-.43a7.79,7.79,0,0,1-3.55-5.21c-1.07-8.38,8.61-16.16,18-23.67,6.44-5.17,12.52-10.06,14.72-14.93a1,1,0,0,0,0-.1l2.27-7.79a.8.8,0,0,0,0-.26s0-.06,0-.09a.66.66,0,0,0,0-.15.47.47,0,0,0-.06-.09l-.08-.12-.09-.07a.39.39,0,0,0-.1-.08h0l-.09,0-.14,0h-.12a.34.34,0,0,0-.14,0s-.07,0-.11,0l-.12.06-.09.08-.08.07A91.47,91.47,0,0,1,462.07,286c-.83.59-1.63,1.17-2.39,1.75-4.42.82-13.47-5.64-16.62-11.36,3.89-3.79,8.55-6.37,12.61-3.16a7.87,7.87,0,0,1,1.59,1.75c.65.88,1.17,1.58,2,1.42s1-1.06,1.11-1.49l.94-2.39h0c1.63-4.4,1.62-7,0-8.49a7.81,7.81,0,0,0-6.52-1.84c-4.78.7-9.73,4.92-13.93,11.9l-.05.09L438.67,279h0v0c-.8,2-.44,4.52,1,7.18a24.6,24.6,0,0,0,10.58,9.55c-7.93,7-14.18,14.75-14.2,26.51.63,5.35,2.64,9.36,6,11.92,2.9,2.23,6.85,3.38,11.76,3.44a42.49,42.49,0,0,0,6.44-.46c6.71-.51,14.07-3.58,20.69-8.65,4.35-3,9.71-9.21,11.92-12.5l1.82-2.83c1.82-2.7,2.05-3.05,1.44-3.57Z" transform="translate(-11.98 -24.43)"/></g></svg>