<?xml version="1.0" encoding="UTF-8"?>
<svg id="Layer_1" data-name="Layer 1" xmlns="http://www.w3.org/2000/svg" viewBox="0 0 415.66 739.6">
  <defs>
    <style>
      .cls-1 {
        fill: #bb9058;
      }
    </style>
  </defs>
  <path class="cls-1" d="M294.2,340.73c-.74-2.01-2.53-3.28-5.19-3.69-5.58-.39-10.47-.36-27.05,3.59-58.91,13.39-131.35,15.65-203.97,6.34-.81-.1-1.49-.19-2.06-.26-10.5-1.31-43.92-8.7-43.6-8.5,1.73,1.06,1.23,1.23,20.34,11.29,3.95,2.08,17.14,8.88,21.06,9.13,5.3,.83,33.45,4.97,72.92,5.91,45.95,1.09,88.1-2.47,126.51-10.61,.04,.08,1.83-8.11,1.89-8.39,1.58-.34,3.42,7.35,4.99,6.99,17.11-4.07,21.25-4.33,24.58-4.25,1.79-.02,3.21,.46,3.53,1.21,.27,.63-.17,1.55-1.28,2.68-.38,.45-.76,.9-1.15,1.35-2.78,3.24-5.65,6.6-7.48,12.46,0,0,0,0,0,0l-.12,.38c-.24,.79-.37,1.28,.03,1.48,.08,.04,.14,.06,.22,.06,.36,0,.76-.55,2.1-2.43,1.77-2.47,4.73-6.61,8.63-10.63,4.39-5.08,6.39-10.62,5.1-14.12Z"/>
  <g>
    <path class="cls-1" d="M324.89,400.77c-.66-9.9-1.29-19.59-1.9-28.96-.77-11.8-1.35-32.37-1.98-41.46,.85,1.21,1.48,1.99,3.41,4.1l.46,.47s.02,.02,.03,.03c.28,.23,.53,.35,.76,.36,.13,0,.26-.04,.37-.12,.51-.37,1.53-1.1-6.3-21.65,0-.02,0-.05-.02-.07-.15-.4-.31-.8-.47-1.2-.53-1.39-1.1-2.86-1.71-4.42,0-.02-.02-.03-.03-.05,0-.02-.02-.04-.03-.05-.01-.02-.03-.03-.04-.04-.01-.01-.03-.03-.04-.04-.02-.01-.04-.02-.06-.03-.02,0-.03-.02-.05-.02-.02,0-.04,0-.06-.01-.02,0-.03,0-.05,0,0,0,0,0,0,0,0,0,0,0,0,0h0s-.02,0-.03,0c-.16,0-.29,.1-.35,.24l-4.46,10.4s-.03,.09-.03,.13c0,.01,0,.02,0,.04,0,.04,0,.07,.02,.11,0,0,0,.01,0,.02l.18,.51c.52,1.44,1.1,3.06,1.71,4.93,.88,10.46,1.91,37.86,3.24,58.34,.6,9.32,1.23,18.95,1.89,28.79,.62,9.51,.92,16.09,1.11,20.59-.04,.03-.09,.06-.13,.09-.6,.54-2.66,1.46-3.43,1.8-9.6,4.28-22.76,2.96-30.6-3.05-.87-.67-1.7-1.31-2.51-1.92,5.44-2.18,10.34-3.72,14.24-4.54,.01,0,.02,0,.04,0,.56-.11,1.23-.21,2.18-.04,0,0,.02,0,.02,0,.01,0,.03,0,.04,0,.02,0,.03,0,.05,0,.02,0,.03,0,.05,0,.03,0,.05-.02,.07-.03,.02,0,.03-.01,.05-.02,.02-.01,.04-.03,.07-.05,.01-.01,.02-.02,.03-.03,.03-.03,.05-.07,.07-.11l4-10.58s.03-.1,.02-.15c0,0,0,0,0-.01,0-.05-.02-.1-.04-.14,0,0,0,0,0-.01,0,0,0,0,0,0,0,0,0-.01,0-.02,0-.02-.03-.03-.04-.04-.02-.03-.04-.05-.07-.08-.02-.01-.04-.02-.06-.03-.02-.01-.04-.03-.06-.03-.26-.08-.88-.4-1.66-.81-4-2.07-13.36-6.92-25.86-7.52-7.09-.58-21.47,1.88-28.72,5.81,0,0,0,0,0,0,0,0,0,0,0,0,0,0,0,0-.01,0-.03,.02-.06,.04-.09,.07,0,0-.02,.02-.02,.02-.03,.03-.05,.07-.07,.11l-4,10.58s-.02,.07-.02,.11c0,.02,0,.03,0,.05,0,.02,0,.04,0,.06,0,.02,.01,.03,.02,.05,0,.02,.01,.04,.02,.06,0,.01,.02,.03,.03,.04,.01,.02,.02,.04,.04,.05,0,0,0,0,0,0,0,0,0,0,0,0,.01,.01,.02,.02,.04,.03,.02,.01,.03,.03,.05,.04,.02,0,.03,.01,.05,.02,.02,0,.04,.02,.06,.02,.02,0,.04,0,.06,0,.02,0,.04,0,.06,0,.02,0,.04,0,.05,0,.02,0,.03,0,.05,0,7.13-2.26,11.48-.3,19.53,5.77-9.7,5.3-18.99,11.74-25.85,19.02-1.69,1.78-3.4,3.68-5.22,5.69-4.83,5.37-10.31,11.46-16.36,15.97-4.23,3.14-10.55,6-15.12,5.3-3.01-.45-5.3-1.94-6.8-4.42-3.2-5.26-2.37-14.37-.24-20.61,2.12-6.17,3.9-9.6,5.09-11.88,.54-1.05,.94-1.8,1.18-2.48l.14-.46c.45-1.27,.41-1.68,.2-1.92-.12-.14-.31-.2-.51-.17-1.24,.25-5.91,7.9-9.31,18.16-2.07,6.2-2.82,18.51,2.03,26.47,2.6,4.27,6.47,6.84,11.49,7.62,.01,0,.03,0,.04,0,.26,.01,.52,.02,.78,.03,4.93,.06,8.64-1.92,11.35-3.69,5.97-3.93,11.64-10.4,16.65-16.11,1.76-2.01,3.43-3.91,5.05-5.65,9.55-10.13,22.13-18.45,33.89-24.41,3.68,2.81,6.94,5.3,11.19,8.56,4.87,3.73,11.65,5.75,18.4,5.83,4.54,.06,9.06-.76,12.98-2.5,0,0,0,0,0,0,1.09-.49,3.02-1.53,3.65-2.1,2.29-1.75,3.49-3.8,4.32-6.17,2.24-5.76,3.57-11.19,1.82-36.58Zm-49.95,21.06c-1.71-1.3-3.51-2.68-5.55-4.23-.54-.42-1.05-.81-1.55-1.2,2.61-.24,5-.3,6.94-.14,2.78,.13,6.23,.53,10.08,1.46-3.21,1.21-6.54,2.58-9.92,4.11Z"/>
    <path class="cls-1" d="M173.35,413.24l.07,.05c2.24,1.59,5.1,2.31,8.19,2.35,6.18,.08,13.3-2.56,18.3-6.31,0,0,0,0,0,0,0,0,0,0,0,0,1.76-1.39,3.99-3.75,5.49-5.5,1.49-1.62,3.33-3.92,4.12-4.89,.19-.23,.3-.26,.32-.26,.14,.04,.53,.43,1.01,3.24,.34,2.04,.89,3.86,1.64,5.39,.87,1.79,2.25,3.71,3.09,4.53,0,0,0,0,0,0,2.09,2.04,5.12,2.86,8.41,2.91,3.48,.04,7.24-.79,10.49-1.97,.6-.22,1.7-.8,2.65-1.5,2.71-2.1,4.83-6.64,5.83-12.44,1.89-10.36-1.9-21.08-6.49-27.1-.1-.13-.26-.18-.41-.15-.16,.04-.27,.16-.3,.32l-2.1,11.12c-.02,.09,0,.19,.04,.27,2.91,5.18,4.88,10.63,5.39,14.95,0,1.01-.04,1.07-.33,1.28-.87,.64-1.91,1.19-2.44,1.38-6.09,2.22-14.03,3.18-18.05-.76-.77-.76-2.11-2.62-2.93-4.3-.82-1.68-1.18-3.03-1.26-4.66-.06-.53-.03-1.18,0-1.8,.06-1.25,.12-2.33-.57-2.68-.54-.27-1.27,.04-2.45,1.04-1.02,.86-1.9,1.87-2.82,2.95-.42,.49-.85,.99-1.31,1.49-1.48,1.72-3.67,4.04-5.38,5.4-7.27,5.45-19.1,8.51-25.53,3.94-3.12-2.22-6.53-5.93-7.41-22.01-1.08-31.02-2.33-50.27-4.04-62.4-.74-4.98-2.69-10.97-5.78-11.45-1.8-.28-3.57,1.33-5.27,4.79l-2.17,4.52c-1.88,3.57-2.04,4.19-1.66,4.6,.34,.36,.84,.13,1.61-.22,1.15-.53,2.9-1.32,4.46-.44,1.78,1,2.97,3.93,3.55,8.7,1.32,12,2.51,31.77,3.77,62.21,.92,16.76,7.26,21.26,10.3,23.42Z"/>
    <path class="cls-1" d="M215.3,443.47c-.18,.21-.16,.52,.04,.7,.9,.83,1.79,1.65,2.67,2.47,2.14,1.98,4.17,3.86,6.24,5.66,.09,.08,.21,.12,.33,.12,.01,0,.03,0,.04,0,.13,0,.26-.07,.35-.17l7.25-8.42c.18-.21,.16-.53-.05-.71-2.06-1.79-4.07-3.66-6.21-5.63-.78-.72-1.57-1.45-2.37-2.19,.03-.02,.06-.05,.08-.07l7.25-8.42c.18-.21,.16-.52-.05-.71-1.22-1.08-3.02-2.74-4.93-4.49-1.3-1.19-2.65-2.42-3.89-3.55-.1-.09-.23-.14-.37-.13-.14,0-.26,.07-.35,.17l-7.25,8.42c-.18,.21-.16,.52,.04,.7,1.24,1.13,2.58,2.36,3.88,3.55,1.76,1.61,3.42,3.13,4.63,4.21-.03,.02-.05,.04-.07,.07l-7.25,8.42Z"/>
    <path class="cls-1" d="M210.09,381.89c.09,.09,.22,.14,.35,.15,0,0,.02,0,.03,0,.14,0,.27-.07,.36-.18l7.25-8.42c.17-.2,.16-.5-.03-.69-2.49-2.47-6.16-5.91-8.7-8.28-.1-.09-.24-.14-.37-.14-.14,0-.27,.07-.36,.17l-7.25,8.42c-.18,.21-.16,.51,.04,.7,2.54,2.37,6.2,5.81,8.68,8.26Z"/>
    <path class="cls-1" d="M182.47,318.55c1.75,1.6,3.41,3.12,4.61,4.2-.03,.02-.05,.04-.07,.07l-7.25,8.42c-.18,.21-.16,.52,.04,.7,.9,.83,1.79,1.65,2.67,2.46,2.14,1.98,4.17,3.86,6.24,5.66,.09,.08,.21,.12,.33,.12,.01,0,.03,0,.04,0,.13,0,.26-.07,.35-.17l7.25-8.42c.18-.21,.16-.53-.05-.71-2.06-1.79-4.08-3.66-6.22-5.64-.78-.72-1.57-1.45-2.36-2.18,.03-.02,.06-.05,.08-.07l7.25-8.42c.18-.21,.16-.52-.05-.71-1.22-1.09-3.03-2.75-4.95-4.5-1.29-1.19-2.63-2.41-3.87-3.53-.1-.09-.23-.14-.37-.13-.14,0-.26,.07-.35,.17l-7.25,8.42c-.18,.21-.16,.52,.04,.7,1.24,1.13,2.59,2.36,3.89,3.56Z"/>
    <path class="cls-1" d="M251.5,397.23c.06,.04,.13,.06,.21,.06,.11,0,.22-.04,.3-.13,.74-.82,1.51-1.2,5.12-2.53,10.89-4.03,39.69-14.47,48.56-17.7,.11-.04,.2-.13,.24-.24l2.29-6.05c.06-.15,.02-.31-.09-.43-.11-.11-.28-.15-.43-.1-6.36,2.32-18.46,6.77-29.12,10.69-4.68,1.72-9.02,3.32-12.34,4.54-4.08,1.5-12.33,4.51-12.62,5.35l-2.29,6.05c-.07,.18,0,.39,.17,.49Z"/>
    <path class="cls-1" d="M262.87,379.41c.11-.23-3.22-44.59-4.84-56.34,0,0-5.59-5.03-5.59-5.03,.72,10.41,5.02,57.86,4.89,57.85,0,0,5.23,3.22,5.54,3.53Z"/>
    <path class="cls-1" d="M182.1,453.72c-.38-.1-.49,.18-.74,.79-.28,.71-.76,1.89-1.44,2.8-1.18,1.5-4.49,2.02-6.32,1-1.8-.98-3.8-3.41-4.03-7.28-.36-4.81,1.59-10.1,3.65-15.71,.53-1.44,1.07-2.92,1.59-4.43,1.37-3.72,2.51-7.86,2.71-8.93l.21-.99c.33-1.99,.35-2.35-.1-2.46-.5-.12-.55,.02-1.8,3.76-.91,2.7-2.15,6.4-3.36,9.01-.33,.77-.67,1.56-1.01,2.36-3.02,7-6.44,14.94-6.25,22.02,.21,5.32,2.14,8.95,5.74,10.78,.01,0,.02,.01,.03,.02,.57,.23,1.71,.6,3.04,.62,1.95,.02,4.32-.71,5.95-3.76,1.07-1.91,2.03-5.76,2.31-7.8l.05-.35h0c.13-1.07,.16-1.35-.24-1.45Z"/>
    <path class="cls-1" d="M183.1,397.13c.97,.01,2.01-.43,3.03-1.33,1.37-1.34,2.39-3.7,2.66-6.15,.27-1.32,.17-3.13,.08-3.8,0-.01,0-.02,0-.03h0c-.08-.69-.1-.85-.39-.85h0c-.28,0-.32,.23-.37,.58-.08,.48-.24,1.47-.65,2.66-.75,1.94-1.8,2.4-2.14,2.55-.42,.19-1.86,.7-2.98-.56-1.36-1.58-1.25-4.09-1-6.09,.24-1.85,1.14-4.78,1.94-7.37,.4-1.3,.78-2.53,1.06-3.56,.47-1.66,.72-3.8,.34-4.17-.09-.09-.22-.12-.34-.08-.2,.06-.31,.26-.42,.79,0,0,0,0,0,0-.3,1.39-1.12,3.6-1.72,5.21l-.2,.53c-1.66,4.18-3.53,8.92-3.78,12.36-.34,3.28,.52,6.17,2.43,8.15,.73,.76,1.57,1.15,2.45,1.16Z"/>
    <path class="cls-1" d="M278.99,318.38s.05,0,.08,0c.13,0,.25-.06,.33-.17l.72-.98c2.5,3.34,4.52,8.58,5.82,15.31,0,0,0,.02,0,.02,0,.01,0,.03,.01,.04,0,.03,.02,.05,.04,.07,0,.01,.01,.02,.02,.03,.02,.03,.05,.05,.08,.08,0,0,0,0,0,0,0,0,0,0,0,0,.03,.02,.06,.04,.09,.05,0,0,0,0,0,0,.04,.01,.08,.02,.13,.02,.05,0,.09,0,.14-.02,.04-.01,.09-.04,.12-.07l1.04-.84s.05-.05,.07-.07c0,0,.01-.02,.02-.03,.01-.02,.02-.04,.03-.06,0,0,0,0,0-.01,1-2.74,1.49-6.35,1.97-9.84,.59-4.34,1.15-8.44,2.57-9.48,.33-.24,1.32-.97,4.18,1.93,.09,.1,.23,.14,.36,.11,.13-.03,.24-.11,.3-.24l1.22-2.87c.05-.12,.04-.26-.03-.37-1.58-2.48-2.96-3.79-4.24-4.01-.64-.11-1.24,.06-1.79,.5-2.29,1.84-3.29,8.3-4.25,14.55-.23,1.52-.46,3-.7,4.39-1.13-7.16-4.5-15.93-10.81-16.8-.08-.01-.17,0-.24,.04-.23,.12-.43,.3-.55,.53,0,0,0,0,0,0,0,0,0,0,0,0,0,0,0,0,0,0l-1.62,2.93s0,0,0,0h0s0,.01,0,.01c-.32,.6-.31,1.38,.05,2.15,.4,.85,1.55,2.38,4.84,3.05Z"/>
    <path class="cls-1" d="M216.25,326.49c.18,0,.39-.02,.62-.05,.43-.05,1.03-.13,1.72-.23,1.04-.15,2.33-.33,3.51-.46,5.25-.42,8.37-.82,9.55-1.22,2.52-.99,5.57-4.54,6.85-6.63l4.57-7.88s0,0,0,0c0,0,0,0,0,0,.03-.05,.04-.1,.05-.15,0,0,0-.02,0-.02,0-.05,0-.1,0-.15,0,0,0-.02,0-.03,0-.05-.03-.1-.05-.14,0,0,0-.01-.01-.02-.03-.05-.06-.09-.1-.12,0,0,0,0,0,0-2.39-2.03-12.5-3.56-19.97-2.41-.15,.02-.28,.11-.35,.23l-5.36,8.71c-.1,.17-.1,.39,.01,.55,.11,.16,.31,.25,.51,.21,6.67-1.26,13.55-.71,17.47,.39-1.22,.83-2.59,1.61-4.13,2.37-2.46,1.17-5.27,2.45-9.16,3.85-2.4,.9-3.39,1.24-4.54,1.64-.29,.1-.59,.2-.91,.31l-.14,.05c-.4,.13-.89,.3-.77,.8,.08,.32,.3,.41,.62,.41Z"/>
  </g>
  <path class="cls-1" d="M350.48,422.19c-.82-17.19-2.81-47.61-4.41-72.06-.49-7.47-.94-14.46-1.33-20.46,.05,.07,.09,.14,.14,.2,.93,1.34,1.44,2.08,3.39,4.46l.52,.62c.1,.12,.36,.44,.68,.45,.08,0,.17-.02,.26-.07,.37-.21,.92-.54-1.98-9.94-1.68-5.44-3.95-12.01-6.07-17.57,0-.01-.01-.02-.02-.04,0-.02-.02-.03-.03-.05-.01-.02-.03-.03-.04-.05-.01-.01-.03-.03-.04-.04-.02-.01-.04-.02-.06-.03-.02,0-.03-.02-.05-.02-.02,0-.04-.01-.07-.02-.01,0-.03,0-.04,0,0,0,0,0-.01,0,0,0,0,0-.01,0-.01,0-.02,0-.03,0-.15,.01-.28,.1-.34,.24l-4.45,10.36s-.03,.1-.03,.15c0,.01,0,.02,0,.03,0,.05,.01,.1,.04,.15,0,0,0,0,0,.01,.48,.97,.79,2.1,1.12,3.3,.19,.7,.39,1.42,.63,2.13,.41,7.85,1.66,26.33,2.97,45.89,1.46,21.73,3.12,46.36,3.97,61.27v.08c.08,3.74,.19,8.85-2.7,12.85-5.7,8.26-19.31,15.79-25.12,19.01-3.28,1.82-3.48,1.93-3.29,2.4,.08,.2,.24,.28,.45,.28,.24,0,.55-.08,.92-.18l4.93-1.4h0c16.42-4.81,21.96-8.17,27.09-21.22,1.25-3.41,3.31-10.63,3-20.71Z"/>
  <path class="cls-1" d="M295.09,472.05c-.34-.29-.52-.13-1.5,.78-1.26,1.16-3.61,3.32-6.51,5.07-3.27,1.9-6.36,3.15-9.46,3.83-5.81,1.39-10.17,1.31-12.6-.25-1.12-.71-1.82-1.75-2.08-3.05-.62-4.9,5.03-9.45,10.5-13.84,3.76-3.02,7.32-5.88,8.6-8.73,0-.02,.02-.04,.02-.06l1.33-4.55c.01-.05,.02-.1,.02-.15,0-.02,0-.04-.01-.06,0-.03-.01-.06-.02-.09,0-.02-.02-.04-.03-.05-.02-.02-.03-.05-.05-.07-.02-.02-.04-.03-.05-.04-.02-.02-.04-.03-.06-.05,0,0,0,0-.01,0,0,0,0,0-.01,0-.02,0-.04,0-.05-.01-.03,0-.06-.02-.08-.02-.02,0-.05,0-.07,0-.03,0-.05,0-.08,0-.02,0-.04,.02-.07,.03-.02,.01-.05,.02-.07,.04-.02,.01-.04,.03-.05,.05-.01,.01-.03,.02-.04,.04-2.28,2.83-4.86,5.18-7.47,7.37-.48,.35-.95,.68-1.4,1.03-2.59,.48-7.87-3.3-9.72-6.64,2.27-2.22,5-3.72,7.37-1.85,.35,.24,.66,.66,.93,1.02,.38,.52,.68,.92,1.15,.83,.44-.09,.59-.62,.65-.87l.55-1.4s0,0,0,0c.95-2.57,.95-4.11-.01-4.96-.99-.91-2.35-1.29-3.81-1.07-2.8,.41-5.69,2.88-8.14,6.96-.01,.02-.02,.04-.03,.05l-1.21,2.86s0,0,0,0h0c-.46,1.2-.25,2.65,.61,4.21,1.26,2.27,3.73,4.44,6.19,5.58-4.63,4.11-8.29,8.62-8.3,15.5,.37,3.13,1.54,5.47,3.49,6.97,1.7,1.3,4,1.98,6.87,2.01,1.16,.01,2.42-.08,3.76-.27,3.92-.3,8.22-2.09,12.1-5.05,2.54-1.78,5.68-5.39,6.97-7.31l1.07-1.65c1.06-1.58,1.2-1.78,.84-2.09Z"/>
  <path class="cls-1" d="M342.5,284.59c-25.48-25.48-59.36-39.51-95.39-39.51-30.69,0-59.61,10.04-83.62,29.04-23.3,18.43-40.08,44.35-47.25,73h.04c2.26,.1,4.52,.19,6.77,.26,14.76-56.39,65.57-95.65,124.06-95.65,70.72,0,128.25,57.53,128.25,128.25s-57.53,128.25-128.25,128.25-128.25-57.53-128.25-128.25c0-3.17,.12-6.37,.35-9.51l-6.63-.49c-.24,3.3-.36,6.67-.36,10,0,36.03,14.03,69.91,39.51,95.39,25.48,25.48,59.36,39.51,95.39,39.51s69.91-14.03,95.39-39.51c25.48-25.48,39.51-59.36,39.51-95.39s-14.03-69.91-39.51-95.39Z"/>
</svg>