<?xml version="1.0" encoding="UTF-8"?>
<svg id="Layer_1" data-name="Layer 1" xmlns="http://www.w3.org/2000/svg" viewBox="0 0 630 620">
  <defs>
    <style>
      .cls-1 {
        fill: none;
        stroke: #ba8f57;
        stroke-miterlimit: 10;
      }

      .cls-2 {
        opacity: .28;
      }
    </style>
  </defs>
  <g class="cls-2">
    <g>
      <path class="cls-1" d="M547.1,354.67c-1.13-16.94-2.21-33.51-3.25-49.53-1.31-20.19-2.31-55.37-3.38-70.92,1.46,2.07,2.53,3.4,5.84,7.01l.79,.8s.03,.03,.05,.04c.48,.4,.91,.6,1.3,.61,.23,0,.44-.07,.64-.21,.87-.63,2.61-1.88-10.78-37.03,0-.04-.01-.08-.03-.12-.26-.68-.53-1.37-.8-2.05-.91-2.37-1.88-4.89-2.93-7.57-.01-.03-.03-.05-.05-.08-.02-.03-.03-.06-.05-.09-.02-.03-.05-.05-.07-.07-.02-.02-.04-.05-.07-.07-.03-.02-.06-.03-.1-.05-.03-.01-.05-.03-.08-.04-.03-.01-.07-.01-.11-.02-.03,0-.06-.02-.09-.02,0,0,0,0,0,0,0,0,0,0,0,0h0s-.03,0-.05,0c-.28,0-.49,.17-.6,.41l-7.63,17.78c-.03,.07-.04,.15-.05,.22,0,.02,0,.04,0,.06,0,.06,.01,.12,.03,.18,0,.01,0,.02,0,.03l.32,.88c.88,2.46,1.88,5.24,2.92,8.43,1.51,17.89,3.27,64.75,5.54,99.8,1.03,15.93,2.1,32.41,3.23,49.25,1.06,16.26,1.57,27.53,1.91,35.21-.08,.06-.15,.11-.21,.16-1.03,.93-4.54,2.49-5.86,3.08-16.43,7.31-38.93,5.07-52.34-5.22-1.5-1.15-2.91-2.24-4.29-3.29,9.3-3.73,17.69-6.36,24.35-7.76,.02,0,.04,0,.06,0,.95-.18,2.11-.35,3.73-.07,.01,0,.03,0,.04,0,.02,0,.05,.01,.07,.01,.03,0,.05,0,.08-.01,.03,0,.06,0,.09-.01,.04-.01,.09-.03,.13-.05,.03-.01,.05-.02,.08-.04,.04-.03,.08-.06,.11-.09,.02-.02,.04-.03,.06-.05,.05-.06,.09-.12,.12-.2l6.85-18.1c.03-.08,.04-.17,.04-.26,0,0,0-.02,0-.02,0-.08-.03-.17-.06-.24,0,0,0-.01,0-.02,0,0,0,0,0-.01,0,0,0-.02-.01-.03-.02-.03-.04-.04-.06-.07-.04-.05-.07-.09-.12-.13-.03-.03-.07-.04-.11-.06-.04-.02-.07-.05-.11-.06-.45-.14-1.5-.69-2.84-1.38-6.84-3.54-22.86-11.84-44.24-12.86-12.12-1-36.73,3.21-49.13,9.94,0,0,0,0,0,0,0,0-.01,0-.02,0,0,0-.01,.01-.02,.01-.06,.03-.1,.07-.15,.12-.01,.01-.03,.03-.04,.04-.05,.06-.09,.12-.11,.19l-6.85,18.1c-.02,.06-.04,.13-.04,.19,0,.03,0,.06,0,.08,0,.04,0,.07,0,.11,0,.03,.02,.05,.03,.08,.01,.03,.02,.07,.04,.1,.01,.02,.03,.04,.05,.07,.02,.03,.04,.06,.06,.09,0,0,0,0,0,0,0,0,0,0,0,0,.02,.02,.04,.03,.06,.05,.03,.02,.06,.05,.09,.07,.03,.01,.06,.02,.08,.03,.03,.01,.06,.03,.1,.04,.03,0,.06,0,.09,.01,.03,0,.06,0,.1,0,.03,0,.06,0,.09-.02,.03,0,.06,0,.09-.01,12.2-3.86,19.64-.5,33.41,9.87-16.59,9.06-32.48,20.09-44.22,32.54-2.9,3.04-5.82,6.29-8.92,9.73-8.27,9.19-17.64,19.6-27.99,27.31-7.24,5.38-18.05,10.27-25.87,9.06-5.15-.78-9.06-3.32-11.64-7.56-5.47-9.01-4.05-24.58-.41-35.25,3.63-10.55,6.68-16.43,8.7-20.32,.93-1.79,1.6-3.08,2.02-4.24l.25-.78c.77-2.17,.7-2.87,.34-3.28-.21-.24-.54-.35-.87-.28-2.12,.42-10.11,13.52-15.92,31.07-3.55,10.6-4.82,31.66,3.47,45.28,4.45,7.31,11.06,11.7,19.66,13.04,.02,0,.05,0,.07,0,.45,.03,.89,.04,1.33,.05,8.43,.11,14.78-3.29,19.42-6.31,10.21-6.73,19.91-17.8,28.48-27.56,3.01-3.44,5.86-6.69,8.64-9.66,16.33-17.32,37.85-31.56,57.98-41.75,6.3,4.81,11.87,9.07,19.13,14.64,8.32,6.39,19.93,9.83,31.48,9.97,7.76,.1,15.5-1.29,22.21-4.28,0,0,0,0,0,0,1.87-.83,5.17-2.61,6.24-3.59,3.92-3,5.97-6.5,7.39-10.56,3.83-9.86,6.1-19.14,3.11-62.56Zm-85.44,36.02c-2.93-2.23-6.01-4.58-9.5-7.23-.92-.72-1.8-1.39-2.65-2.05,4.46-.41,8.55-.52,11.88-.25,4.76,.23,10.66,.9,17.25,2.5-5.49,2.07-11.19,4.42-16.97,7.03Z"/>
      <path class="cls-1" d="M277.76,271.64c-3.53,.13-7.08,.24-10.63,.32-1.08-18.05-2.18-31.97-3.32-42.45-.99-8.17-3.03-13.18-6.07-14.88-2.67-1.5-5.67-.15-7.63,.76-1.31,.6-2.17,.99-2.76,.38-.65-.7-.38-1.75,2.84-7.86l3.71-7.73c2.9-5.92,5.94-8.68,9.02-8.2,5.29,.82,8.64,11.07,9.9,19.59,1.96,13.83,3.56,33.07,4.95,60.09Z"/>
      <path class="cls-1" d="M406.95,351.36c-1.7,9.93-5.34,17.69-9.97,21.29-1.62,1.18-3.5,2.18-4.53,2.55-5.56,2.02-11.99,3.44-17.94,3.37-2.81-.04-5.51-.4-7.95-1.2-2.44-.8-4.64-2.02-6.43-3.77-1.43-1.41-3.8-4.69-5.28-7.74-1.28-2.64-2.22-5.74-2.81-9.23-.81-4.8-1.48-5.47-1.73-5.54-.03,0-.22,.05-.54,.44-1.35,1.67-4.49,5.59-7.05,8.37-2.56,2.98-6.38,7.03-9.39,9.4,0,0,0,0,0,0-8.56,6.42-20.73,10.92-31.31,10.79-5.28-.07-10.17-1.29-14.01-4.02l-.12-.09c-5.22-3.7-16.06-11.4-17.63-40.06-.67-16.18-1.33-30.6-1.99-43.41,3.51-.1,6.99-.23,10.46-.37,.34,8.12,.68,16.82,1,26.13,1.51,27.5,7.33,33.85,12.68,37.65,10.99,7.81,31.23,2.58,43.67-6.75,2.93-2.32,6.67-6.29,9.21-9.24,.79-.85,1.53-1.71,2.24-2.54,1.59-1.83,3.08-3.57,4.83-5.03,2-1.7,3.26-2.23,4.18-1.78,1.19,.59,1.1,2.43,.99,4.58-.05,1.07-.11,2.17,0,3.08,.14,2.79,.76,5.09,2.16,7.97,1.4,2.88,3.69,6.06,5.01,7.36,6.88,6.74,20.47,5.08,30.88,1.29,.91-.33,2.68-1.27,4.17-2.36,.49-.35,.58-.46,.57-2.19-.88-7.39-4.24-16.7-9.23-25.57-.07-.14-.1-.3-.07-.47l3.6-19.01c.05-.27,.26-.49,.52-.54,.27-.06,.54,.04,.7,.25,7.86,10.31,14.34,28.64,11.1,46.35Z"/>
      <path class="cls-1" d="M359.64,427.7c-.3,.35-.27,.89,.07,1.2,1.55,1.42,3.07,2.83,4.57,4.22,3.67,3.39,7.13,6.6,10.67,9.68,.15,.13,.35,.21,.56,.21,.02,0,.05,0,.07,0,.23-.02,.44-.12,.59-.3l12.4-14.41c.31-.36,.27-.9-.09-1.22-3.52-3.06-6.97-6.25-10.62-9.64-1.34-1.24-2.69-2.49-4.06-3.74,.05-.04,.1-.08,.14-.13l12.4-14.41c.31-.36,.27-.9-.08-1.21-2.08-1.85-5.17-4.68-8.44-7.67-2.22-2.04-4.53-4.15-6.65-6.08-.17-.16-.4-.24-.63-.22-.23,.01-.45,.12-.6,.3l-12.4,14.41c-.31,.35-.27,.89,.07,1.2,2.12,1.93,4.42,4.03,6.64,6.07,3,2.75,5.84,5.36,7.91,7.21-.05,.04-.09,.08-.13,.12l-12.4,14.41Z"/>
      <path class="cls-1" d="M350.73,322.37c.16,.16,.37,.25,.6,.25,.02,0,.03,0,.05,0,.24,0,.46-.12,.62-.3l12.4-14.41c.3-.34,.28-.86-.05-1.18-4.27-4.22-10.54-10.11-14.88-14.17-.17-.16-.4-.24-.64-.23-.24,.01-.45,.12-.61,.3l-12.4,14.41c-.3,.35-.27,.88,.06,1.19,4.34,4.06,10.61,9.94,14.85,14.14Z"/>
      <path class="cls-1" d="M303.49,214.02c3,2.74,5.83,5.34,7.89,7.19-.05,.04-.09,.08-.13,.12l-12.4,14.41c-.3,.35-.27,.89,.07,1.2,1.55,1.42,3.07,2.82,4.57,4.22,3.67,3.4,7.13,6.6,10.67,9.68,.15,.13,.35,.21,.56,.21,.02,0,.05,0,.07,0,.23-.02,.44-.12,.59-.3l12.4-14.41c.31-.36,.27-.9-.09-1.22-3.52-3.06-6.98-6.26-10.64-9.65-1.33-1.23-2.68-2.48-4.04-3.73,.05-.04,.1-.08,.14-.13l12.4-14.41c.31-.36,.27-.9-.08-1.21-2.09-1.86-5.19-4.7-8.47-7.7-2.21-2.03-4.5-4.13-6.62-6.05-.17-.16-.4-.24-.63-.22-.23,.01-.45,.12-.6,.3l-12.4,14.41c-.31,.35-.27,.89,.07,1.2,2.13,1.93,4.43,4.05,6.66,6.08Z"/>
      <path class="cls-1" d="M421.56,348.61c.11,.07,.23,.1,.35,.1,.19,0,.38-.08,.52-.23,1.27-1.4,2.58-2.05,8.76-4.33,18.63-6.89,67.9-24.74,83.07-30.28,.19-.07,.34-.22,.41-.4l3.91-10.34c.1-.25,.04-.54-.15-.73-.19-.19-.47-.26-.73-.16-10.88,3.97-31.57,11.57-49.82,18.29-8.01,2.95-15.43,5.67-21.11,7.76-6.98,2.57-21.09,7.71-21.59,9.15l-3.91,10.34c-.12,.31,0,.66,.29,.83Z"/>
      <path class="cls-1" d="M485.88,276.12c-6.67,6.87-11.74,13.95-14.77,18.18-2.3,3.22-2.97,4.16-3.6,4.16-.12,0-.24-.05-.37-.11-.7-.34-.48-1.18-.05-2.53l.2-.65c3.13-10.03,8.05-15.77,12.8-21.32,.66-.76,1.31-1.53,1.96-2.3,1.91-1.94,2.65-3.52,2.2-4.6-.55-1.28-2.97-2.11-6.03-2.07-5.6-.14-12.55,.29-40.69,6.95,1.96,23.68,3.59,46.08,3.49,46.29-.53-.54-9.48-6.05-9.48-6.05,.13,.02-2.08-24.86-4.27-50.11-.84,3.84-2.77,12.58-2.85,12.58-45.48,9.64-94.02,15.52-145.67,17.61-3.47,.14-6.96,.27-10.46,.37-19.64,.59-39.73,.65-60.26,.16-67.51-1.6-115.68-8.69-124.74-10.11-6.7-.42-29.26-12.06-36.02-15.62-32.7-17.21-31.83-17.48-34.79-19.31-.56-.34,56.61,12.29,74.58,14.54,.97,.12,2.14,.27,3.52,.45,59.78,7.65,119.48,10.74,176.58,9.31,3.55-.08,7.09-.19,10.63-.32,52.69-1.82,102.98-7.52,148.85-17.05-1.54-17.74-2.97-34.46-3.45-41.45l9.57,8.61c.85,6.23,2,17.81,3.16,30.85,1.2-.26,2.39-.53,3.57-.8,28.36-6.75,36.73-6.81,46.26-6.14,4.57,.7,7.62,2.87,8.89,6.31,2.21,5.99-1.22,15.47-8.72,24.16Z"/>
      <path class="cls-1" d="M302.86,445.23c-.65-.17-.84,.31-1.26,1.36-.49,1.21-1.3,3.24-2.46,4.8-2.02,2.56-7.67,3.45-10.82,1.7-3.07-1.68-6.5-5.83-6.9-12.45-.61-8.22,2.72-17.28,6.25-26.88,.9-2.46,1.84-5,2.73-7.57,2.34-6.37,4.29-13.44,4.63-15.27l.36-1.7c.56-3.4,.6-4.02-.18-4.21-.85-.21-.94,.04-3.08,6.43-1.55,4.62-3.68,10.95-5.75,15.41-.56,1.32-1.14,2.67-1.73,4.04-5.16,11.98-11.01,25.56-10.7,37.67,.35,9.1,3.66,15.3,9.83,18.44,.02,0,.04,.02,.06,.03,.98,.39,2.93,1.02,5.21,1.05,3.33,.04,7.38-1.21,10.17-6.43,1.83-3.27,3.47-9.85,3.96-13.35l.08-.59v-.02c.22-1.81,.27-2.29-.4-2.46Z"/>
      <path class="cls-1" d="M304.58,348.44c1.67,.02,3.43-.74,5.18-2.27,2.35-2.29,4.09-6.34,4.56-10.51,.46-2.25,.29-5.35,.13-6.5,0-.02,0-.04-.01-.06v-.02c-.14-1.16-.18-1.44-.67-1.44h0c-.48,0-.54,.39-.64,1-.13,.81-.4,2.51-1.11,4.56-1.28,3.31-3.07,4.1-3.66,4.36-.71,.32-3.19,1.19-5.09-.96-2.32-2.71-2.14-6.99-1.72-10.41,.41-3.16,1.96-8.18,3.33-12.61,.69-2.23,1.34-4.33,1.81-6.08,.81-2.84,1.23-6.5,.58-7.14-.16-.15-.37-.21-.58-.14-.34,.11-.53,.45-.71,1.35,0,0,0,0,0,0-.51,2.37-1.91,6.15-2.94,8.91l-.34,.91c-2.83,7.15-6.05,15.25-6.46,21.14-.58,5.61,.89,10.56,4.15,13.94,1.25,1.3,2.69,1.96,4.2,1.98Z"/>
      <path class="cls-1" d="M468.59,213.74s.09,.01,.13,.01c.22,0,.43-.1,.57-.28l1.22-1.68c4.28,5.71,7.73,14.67,9.95,26.19,0,.01,.01,.03,.01,.04,0,.02,.01,.05,.02,.07,.02,.04,.04,.08,.06,.12,.01,.02,.02,.04,.04,.06,.04,.05,.08,.09,.13,.13,0,0,0,0,.01,.01,0,0,0,0,0,0,.05,.03,.1,.06,.16,.09,0,0,0,0,.01,0,.07,.02,.14,.04,.22,.04,.08,0,.16-.01,.23-.04,.07-.03,.15-.06,.21-.11l1.79-1.43s.08-.08,.12-.13c.01-.01,.02-.03,.03-.05,.02-.03,.04-.07,.06-.11,0,0,.01-.02,.01-.03,1.71-4.69,2.56-10.86,3.37-16.83,1.02-7.43,1.98-14.44,4.4-16.22,.56-.41,2.26-1.66,7.15,3.31,.16,.16,.39,.24,.62,.19,.23-.04,.42-.2,.51-.41l2.08-4.9c.09-.21,.07-.45-.05-.64-2.7-4.25-5.07-6.49-7.25-6.85-1.1-.18-2.13,.11-3.07,.86-3.92,3.15-5.62,14.2-7.27,24.89-.4,2.59-.79,5.13-1.2,7.51-1.93-12.25-7.7-27.26-18.49-28.73-.14-.02-.28,0-.41,.07-.4,.21-.73,.52-.95,.9,0,0,0,0,0,0,0,0,0,0,0,0,0,0,0,0,0,0l-2.77,5.01s0,.01,0,.02v.02s-.01,0-.01,0c-.55,1.02-.52,2.36,.09,3.67,.68,1.46,2.66,4.07,8.28,5.21Z"/>
      <path class="cls-1" d="M361.27,227.6c.31,0,.67-.04,1.06-.08,.73-.08,1.76-.23,2.94-.4,1.77-.25,3.98-.56,6.01-.78,8.98-.72,14.32-1.4,16.34-2.08,4.3-1.69,9.53-7.76,11.72-11.35l7.82-13.49s0,0,0,0c0,0,0,0,0,0,.05-.08,.07-.17,.09-.25,0-.01,0-.03,0-.04,.01-.09,.01-.17,0-.26,0-.02,0-.03,0-.04-.02-.08-.04-.17-.09-.24,0-.01-.01-.02-.02-.03-.05-.08-.1-.15-.18-.21,0,0,0,0,0,0-4.08-3.46-21.38-6.09-34.15-4.12-.25,.04-.47,.19-.6,.4l-9.17,14.9c-.18,.29-.17,.66,.02,.94,.19,.28,.53,.42,.87,.36,11.41-2.15,23.18-1.21,29.89,.66-2.09,1.42-4.42,2.75-7.07,4.05-4.2,2-9.01,4.19-15.67,6.59-4.1,1.55-5.8,2.13-7.77,2.8-.5,.17-1.01,.34-1.56,.54l-.24,.08c-.68,.23-1.52,.52-1.32,1.36,.13,.54,.51,.7,1.06,.7Z"/>
    </g>
    <path class="cls-1" d="M590.88,391.31c-1.4-29.4-4.8-81.44-7.54-123.26-.83-12.77-1.62-24.73-2.27-35,.08,.12,.16,.23,.24,.35,1.58,2.3,2.46,3.56,5.79,7.63l.9,1.06c.17,.21,.62,.76,1.17,.76,.14,0,.29-.03,.45-.12,.63-.37,1.58-.92-3.39-17.01-2.87-9.3-6.75-20.53-10.38-30.05,0-.02-.02-.04-.04-.06-.01-.03-.03-.06-.05-.08-.02-.03-.05-.06-.07-.08-.02-.02-.04-.05-.07-.06-.03-.02-.06-.04-.1-.06-.03-.01-.05-.03-.08-.04-.04-.01-.08-.02-.12-.03-.02,0-.05-.02-.07-.02,0,0-.01,0-.02,0,0,0-.01,0-.02,0-.02,0-.04,0-.06,0-.25,.02-.49,.17-.59,.41l-7.6,17.73c-.04,.08-.05,.17-.05,.26,0,.02,0,.03,0,.05,0,.09,.03,.17,.06,.25,0,0,0,.01,0,.02,.83,1.66,1.35,3.6,1.91,5.65,.33,1.2,.66,2.43,1.07,3.64,.71,13.42,2.83,45.03,5.09,78.49,2.5,37.17,5.34,79.31,6.78,104.8v.13c.14,6.39,.32,15.14-4.62,21.99-9.75,14.12-33.03,27.01-42.97,32.51-5.62,3.11-5.95,3.3-5.63,4.1,.14,.35,.41,.47,.78,.48,.41,0,.94-.14,1.57-.31l8.43-2.39h0c28.08-8.22,37.57-13.98,46.34-36.29,2.14-5.83,5.65-18.18,5.13-35.43Z"/>
    <path class="cls-1" d="M496.13,476.6c-.58-.5-.88-.22-2.57,1.33-2.16,1.98-6.17,5.68-11.14,8.67-5.6,3.25-10.89,5.39-16.17,6.55-9.94,2.38-17.39,2.24-21.56-.43-1.91-1.22-3.11-2.99-3.55-5.21-1.07-8.38,8.61-16.16,17.97-23.67,6.44-5.17,12.52-10.06,14.72-14.93,.01-.03,.03-.06,.04-.1l2.27-7.79c.03-.09,.03-.18,.03-.26,0-.03-.02-.06-.02-.09-.01-.05-.02-.11-.04-.15-.01-.03-.04-.06-.06-.09-.03-.04-.05-.08-.08-.12-.03-.03-.06-.05-.09-.07-.03-.03-.06-.06-.1-.08,0,0-.01,0-.02,0,0,0-.01,0-.02-.01-.03-.01-.06-.01-.09-.02-.05-.01-.09-.03-.14-.04-.04,0-.08,0-.12,0-.05,0-.09,0-.14,.02-.04,0-.07,.03-.11,.04-.04,.02-.08,.04-.12,.06-.03,.02-.06,.05-.09,.08-.02,.02-.05,.04-.08,.07-3.9,4.83-8.31,8.86-12.78,12.6-.83,.59-1.63,1.17-2.39,1.75-4.42,.82-13.47-5.64-16.62-11.36,3.89-3.79,8.55-6.37,12.61-3.16,.6,.42,1.13,1.13,1.59,1.75,.65,.88,1.17,1.58,1.96,1.42,.76-.15,1-1.06,1.11-1.49l.94-2.39s0,0,0-.01c1.63-4.4,1.62-7.02-.03-8.49-1.7-1.55-4.01-2.2-6.52-1.84-4.78,.7-9.73,4.92-13.93,11.9-.02,.03-.03,.06-.05,.09l-2.07,4.89s0,0,0,0v.02c-.8,2.04-.44,4.52,1.03,7.18,2.15,3.89,6.37,7.59,10.58,9.55-7.93,7.04-14.18,14.75-14.2,26.51,.63,5.35,2.64,9.36,5.96,11.92,2.9,2.23,6.85,3.38,11.76,3.44,1.99,.02,4.14-.13,6.44-.46,6.71-.51,14.07-3.58,20.69-8.65,4.35-3.05,9.71-9.21,11.92-12.5l1.82-2.83c1.82-2.7,2.05-3.05,1.44-3.57Z"/>
  </g>
</svg>